<?xml version="1.0" standalone="no"?>
<!DOCTYPE svg PUBLIC "-//W3C//DTD SVG 20010904//EN"
 "http://www.w3.org/TR/2001/REC-SVG-20010904/DTD/svg10.dtd">
<svg version="1.0" xmlns="http://www.w3.org/2000/svg"
 width="150.000000pt" height="219.000000pt" viewBox="0 0 150.000000 219.000000"
 preserveAspectRatio="xMidYMid meet">

<g transform="translate(0.000000,219.000000) scale(0.100000,-0.100000)"
fill="#000000" stroke="none">
<path d="M2 2043 l3 -148 32 1 c22 1 33 -3 33 -12 0 -12 -20 -18 -57 -17 -10
1 -13 -66 -13 -303 0 -167 3 -304 8 -304 22 1 51 13 47 21 -3 4 3 13 14 18 11
6 22 24 26 40 4 21 15 33 36 40 20 7 27 15 23 25 -3 9 -2 16 4 16 6 0 12 -5
14 -12 3 -8 31 -2 94 21 49 17 85 28 79 22 -13 -13 -173 -81 -205 -87 -33 -7
-37 -15 -44 -93 -4 -36 -11 -86 -16 -111 -5 -25 -12 -62 -15 -82 -5 -34 -9
-38 -35 -38 l-30 0 0 -520 0 -520 750 0 750 0 0 225 c0 124 -3 225 -7 225 -5
0 -9 14 -10 30 -1 17 2 30 7 30 6 0 10 15 10 34 0 36 -17 50 -47 39 -16 -6
-16 -5 -4 10 7 9 22 17 32 17 18 0 19 12 19 259 l0 260 -32 3 c-26 2 -34 8
-36 27 -2 13 1 28 6 33 11 11 4 48 -10 48 -5 0 -6 -5 -2 -11 3 -6 -5 -4 -18 5
-14 9 -32 14 -41 11 -8 -4 -18 -2 -22 4 -3 7 2 11 14 11 25 0 44 34 43 74 -1
22 2 26 8 16 6 -8 10 -22 10 -31 0 -25 27 -42 55 -35 l25 6 0 140 c0 120 -2
139 -15 134 -9 -4 -29 -1 -46 6 -28 12 -29 14 -13 31 10 11 30 19 46 19 l28 0
0 285 0 285 -750 0 -751 0 3 -147z m785 14 c0 -8 -6 -14 -13 -14 -7 0 -15 6
-18 14 -3 8 2 13 13 13 10 0 18 -6 18 -13z m235 -2 c5 -6 8 -6 8 2 0 7 7 10
17 6 15 -6 14 -7 -3 -13 -10 -4 -23 -5 -29 -2 -5 4 -16 7 -23 8 -25 4 -25 13
-1 11 13 0 27 -6 31 -12z m-828 -48 c3 -14 1 -16 -9 -7 -10 8 -14 7 -18 -2 -3
-8 -6 -5 -6 6 -1 19 -1 19 -14 1 -13 -17 -14 -17 -19 1 -4 16 1 19 28 19 23 0
34 -5 38 -18z m26 7 c0 -8 -4 -12 -10 -9 -5 3 -10 10 -10 16 0 5 5 9 10 9 6 0
10 -7 10 -16z m50 4 c0 -9 4 -8 10 2 8 12 10 12 10 1 0 -10 3 -11 13 -3 9 8
13 7 13 -6 0 -14 -7 -17 -33 -14 -18 2 -33 9 -33 16 0 6 -5 4 -10 -4 -8 -13
-10 -12 -10 3 0 10 8 17 20 17 11 0 20 -6 20 -12z m246 -1 c4 -4 14 -1 22 6
13 9 14 9 8 0 -4 -8 -2 -13 8 -13 8 0 17 -3 19 -7 6 -10 -119 -10 -128 -1 -4
4 -4 11 -1 16 7 11 61 10 72 -1z m204 -8 c0 -5 -4 -9 -10 -9 -5 0 -10 7 -10
16 0 8 5 12 10 9 6 -3 10 -10 10 -16z m90 8 c0 -5 7 -7 15 -3 9 3 15 0 15 -9
0 -8 -9 -15 -20 -15 -11 0 -20 5 -20 11 0 8 -4 8 -15 -1 -17 -14 -55 -4 -55
14 0 8 14 13 40 13 22 0 40 -4 40 -10z m164 -2 c-4 -8 -7 -15 -9 -15 -2 0 -5
7 -9 15 -3 9 0 15 9 15 9 0 12 -6 9 -15z m36 -2 c0 -15 2 -15 9 -4 5 8 22 15
38 17 15 1 22 0 15 -3 -9 -3 -10 -9 -2 -17 10 -13 7 -13 -72 -7 -12 1 -9 31 2
31 6 0 10 -8 10 -17z m203 3 c6 -16 -2 -28 -14 -20 -12 7 -11 34 0 34 5 0 11
-6 14 -14z m77 0 c0 -5 8 -2 17 5 11 10 14 10 9 2 -4 -7 -3 -13 3 -13 5 0 12
6 14 13 3 6 6 2 6 -9 1 -20 -2 -21 -34 -14 -24 5 -35 4 -36 -4 0 -7 -3 -6 -6
2 -3 9 -9 10 -17 3 -8 -7 -12 -5 -12 7 0 12 9 17 28 17 15 0 28 -4 28 -9z m90
5 c0 -12 -20 -25 -27 -18 -7 7 6 27 18 27 5 0 9 -4 9 -9z m-595 -103 c12 -95
14 -269 4 -262 -5 3 -9 0 -9 -5 0 -6 -6 -11 -14 -11 -11 0 -14 27 -15 135 -2
135 5 205 19 205 4 0 11 -28 15 -62z m-365 12 c0 -5 -5 -10 -11 -10 -5 0 -7 5
-4 10 3 6 8 10 11 10 2 0 4 -4 4 -10z m158 -52 c26 -21 43 -44 46 -63 8 -43
12 -205 6 -194 -3 5 -11 -12 -18 -36 -10 -37 -9 -52 2 -80 14 -33 36 -48 36
-25 0 6 28 10 63 10 50 0 64 -4 74 -19 17 -27 -7 -35 -46 -15 -18 9 -40 12
-56 8 l-26 -6 22 -24 c12 -13 26 -21 31 -18 9 6 162 -51 185 -68 6 -5 25 -51
41 -101 74 -231 103 -329 98 -335 -3 -3 -6 0 -6 7 0 7 -5 9 -10 6 -7 -4 -6
-14 2 -28 10 -20 10 -21 -5 -9 -11 10 -14 23 -10 44 4 21 0 37 -16 58 -22 30
-27 45 -12 36 21 -14 -30 175 -58 210 -13 16 -21 41 -21 65 0 35 -3 38 -37 49
-21 7 -62 23 -92 37 -38 17 -56 21 -61 13 -4 -7 -10 -12 -13 -13 -9 -3 -49 37
-57 57 -3 11 -10 -68 -14 -175 -6 -168 -20 -306 -26 -259 -1 8 -3 26 -5 40 -2
14 -8 55 -14 93 -6 37 -10 71 -9 75 1 4 -6 21 -15 39 -19 36 -22 63 -7 63 6 0
10 -4 10 -10 0 -5 5 -10 10 -10 7 0 7 7 -1 21 -6 12 -8 34 -5 50 3 15 1 31 -4
34 -5 3 2 22 15 42 14 20 25 40 25 44 0 13 -14 11 -28 -3 -18 -18 -16 2 7 61
16 42 19 72 13 117 -1 6 -12 16 -24 23 l-23 11 23 -6 c25 -6 30 11 6 20 -12 5
-14 9 -5 20 8 10 8 16 -3 25 -16 14 -56 6 -56 -10 0 -6 -20 -9 -47 -8 -40 3
-47 0 -54 -19 -6 -16 -5 -22 6 -22 9 0 12 -6 8 -17 -4 -10 -2 -14 4 -10 6 4 4
-11 -4 -35 -8 -23 -12 -52 -9 -64 4 -13 1 -26 -4 -29 -6 -4 -8 -16 -4 -27 4
-14 2 -18 -5 -14 -22 14 -10 -14 20 -49 24 -27 29 -38 20 -49 -6 -7 -8 -27 -5
-45 5 -25 9 -29 21 -20 7 7 15 10 16 8 1 -2 8 -11 15 -21 11 -13 9 -28 -9 -84
-20 -63 -21 -80 -16 -268 4 -138 2 -190 -4 -166 -6 19 -11 44 -13 54 -1 11 -8
22 -14 24 -7 2 -12 -18 -15 -55 l-3 -58 -2 62 c-1 34 2 64 7 67 4 3 4 29 0 58
-12 74 -27 232 -35 368 -3 63 -8 118 -11 123 -2 4 1 23 7 41 8 27 7 42 -5 77
-9 24 -16 67 -15 94 0 28 0 73 0 101 -1 56 21 92 74 125 48 29 97 25 144 -13z
m-451 10 c5 14 23 16 23 2 0 -12 -45 -24 -60 -15 -5 3 -8 11 -4 16 3 6 12 5
22 -3 12 -10 16 -10 19 0z m63 2 c0 -5 -4 -10 -10 -10 -5 0 -10 5 -10 10 0 6
5 10 10 10 6 0 10 -4 10 -10z m931 -63 c72 -49 123 -161 100 -223 -13 -36 -7
-74 12 -74 45 0 129 -109 105 -137 -15 -19 -24 -16 -43 13 -13 20 -14 28 -4
40 10 12 9 19 -8 36 -21 20 -83 33 -83 17 0 -5 -4 -9 -9 -9 -5 0 -9 21 -8 48
1 50 -7 78 -55 181 -18 39 -24 60 -15 52 13 -10 15 -9 10 11 -5 23 -5 23 16
-2 11 -14 21 -20 20 -15 0 29 -71 79 -99 70 -12 -4 -20 -2 -20 4 0 19 46 12
81 -12z m-257 -60 c6 -9 7 -19 4 -23 -9 -8 -38 20 -38 36 0 16 21 8 34 -13z
m586 13 c0 -5 -4 -10 -10 -10 -5 0 -10 5 -10 10 0 6 5 10 10 10 6 0 10 -4 10
-10z m-543 -52 c-3 -7 -5 -2 -5 12 0 14 2 19 5 13 2 -7 2 -19 0 -25z m205 -18
c17 -34 17 -35 -2 -42 -11 -4 -20 -12 -20 -18 0 -5 0 -13 0 -17 0 -5 9 -8 20
-8 12 0 25 -7 30 -15 9 -15 3 -63 -12 -93 -12 -24 0 -41 18 -26 11 9 14 7 14
-15 0 -14 -4 -26 -10 -26 -5 0 -10 5 -10 11 0 6 -6 9 -14 6 -8 -3 -16 -1 -18
4 -2 6 -11 7 -21 4 -17 -7 -24 -56 -11 -89 7 -18 24 -22 24 -5 0 6 6 17 14 25
12 12 16 10 28 -16 7 -17 16 -30 20 -30 5 0 8 -7 8 -15 0 -8 7 -15 15 -15 36
0 -5 -76 -59 -109 -44 -27 -56 -21 -56 28 0 20 -5 42 -12 49 -9 9 -9 17 2 36
7 15 9 32 5 43 -8 18 -10 26 -14 53 -2 11 -5 9 -11 -5 -7 -19 -9 -18 -19 8 -6
16 -11 34 -11 41 0 8 -7 30 -15 49 -19 46 -19 67 -1 41 13 -18 14 -17 13 16
-2 30 1 34 23 35 18 0 26 6 28 23 3 18 -1 22 -22 22 -21 0 -26 5 -26 27 0 67
72 84 102 23z m-590 -20 c4 0 8 -5 8 -11 0 -5 -4 -8 -10 -4 -5 3 -5 -7 1 -25
13 -36 24 -40 15 -6 -7 29 9 43 29 26 10 -8 12 -17 5 -29 -5 -9 -5 -23 -1 -29
4 -7 5 -27 3 -44 -5 -30 -6 -31 -13 -10 -5 13 -17 22 -29 22 -25 0 -37 25 -20
45 7 8 9 16 4 17 -5 0 -13 2 -19 3 -5 2 -18 3 -28 4 -16 1 -16 4 4 44 21 40
22 41 32 20 6 -13 14 -23 19 -23z m-296 -31 c2 -55 0 -60 -19 -57 -15 2 -21
11 -22 33 -3 51 6 85 24 85 13 0 16 -12 17 -61z m-176 19 c0 -25 -3 -29 -10
-18 -13 20 -13 50 0 50 6 0 10 -15 10 -32z m669 -19 c-8 -5 -21 -8 -29 -8 -10
0 -11 2 -2 6 25 10 12 25 -18 20 -17 -4 -30 -2 -30 3 0 6 13 10 29 10 17 0 33
5 37 12 5 8 11 4 18 -11 7 -17 6 -25 -5 -32z m-255 -45 c3 -8 2 -12 -4 -9 -6
3 -10 1 -10 -5 0 -6 -4 -9 -10 -5 -10 6 -2 35 10 35 4 0 11 -7 14 -16z m-374
-17 c21 3 47 3 56 -1 16 -6 16 -8 2 -22 -13 -13 -20 -14 -37 -4 -16 8 -26 8
-35 1 -10 -8 -17 -6 -30 7 -9 10 -13 22 -9 26 4 4 9 3 11 -2 2 -6 21 -8 42 -5z
m815 -58 c-5 -14 -75 -24 -75 -10 1 10 64 37 73 31 4 -4 5 -13 2 -21z m-360
11 c3 -5 1 -10 -4 -10 -6 0 -11 5 -11 10 0 6 2 10 4 10 3 0 8 -4 11 -10z
m-214 -48 c7 -17 5 -24 -7 -29 -18 -7 -34 12 -34 40 0 26 31 18 41 -11z m125
3 c21 -23 22 -25 4 -25 -11 0 -24 9 -30 19 -20 39 -8 42 26 6z m89 6 c-13 -14
-17 -14 -30 0 -14 14 -13 16 15 16 28 0 29 -2 15 -16z m-380 -21 c3 -5 1 -10
-4 -10 -6 0 -11 5 -11 10 0 6 2 10 4 10 3 0 8 -4 11 -10z m50 0 c3 -5 2 -10
-4 -10 -5 0 -13 5 -16 10 -3 6 -2 10 4 10 5 0 13 -4 16 -10z m685 -20 c0 -13
-7 -20 -20 -20 -11 0 -20 5 -20 10 0 6 7 10 15 10 8 0 15 5 15 10 0 6 2 10 5
10 3 0 5 -9 5 -20z m50 16 c0 -11 -19 -15 -25 -6 -3 5 1 10 9 10 9 0 16 -2 16
-4z m34 -72 c9 -24 7 -29 -5 -17 -6 6 -19 9 -28 5 -14 -5 -14 -4 -2 11 17 21
27 22 35 1z m-454 -18 c0 -2 -7 -7 -16 -10 -8 -3 -12 -2 -9 4 6 10 25 14 25 6z
m595 -256 c-3 -5 -2 -10 3 -10 14 0 22 -38 8 -43 -20 -7 -36 4 -36 27 0 24 7
36 22 36 5 0 6 -4 3 -10z m-580 -80 c-3 -5 -2 -10 2 -10 12 0 11 -44 0 -52
-18 -11 -37 3 -37 28 0 13 5 24 11 24 5 0 7 5 4 10 -3 6 1 10 10 10 9 0 13 -4
10 -10z m10 -220 c0 -52 -1 -55 -25 -55 -21 0 -26 6 -31 40 -8 49 5 77 34 73
20 -3 22 -9 22 -58z m95 6 c0 -30 -4 -58 -10 -61 -6 -4 -10 16 -10 51 0 67
-16 63 -28 -6 -4 -24 -13 -45 -20 -48 -14 -4 -16 14 -2 23 6 3 10 26 10 51 0
42 1 44 30 44 30 0 30 -1 30 -54z m40 29 c0 -16 6 -25 15 -25 9 0 15 9 15 25
0 14 5 25 10 25 6 0 10 -25 10 -55 0 -30 -4 -55 -10 -55 -5 0 -10 11 -10 25 0
16 -6 25 -15 25 -9 0 -15 -9 -15 -24 0 -14 -4 -28 -10 -31 -6 -4 -10 17 -10
54 0 34 4 61 10 61 6 0 10 -11 10 -25z m133 -8 c18 -54 -14 -105 -48 -77 -15
13 -21 90 -8 104 15 15 47 0 56 -27z m37 3 c0 -20 5 -30 15 -30 9 0 15 9 15
25 0 14 5 25 10 25 6 0 10 -22 10 -50 0 -27 -4 -50 -10 -50 -5 0 -10 9 -10 20
0 13 -7 20 -19 20 -10 0 -22 7 -25 16 -9 24 -7 54 4 54 6 0 10 -13 10 -30z
m90 7 c0 -13 9 -26 22 -32 29 -13 33 -29 12 -49 -31 -32 -49 -16 -52 47 -2 35
1 57 8 57 5 0 10 -10 10 -23z m159 -57 c6 -18 6 -28 1 -25 -6 4 -16 3 -22 -2
-25 -15 -35 -11 -35 15 l0 25 12 -23 c12 -22 12 -22 18 9 8 39 12 39 26 1z
m-72 -22 c-3 -7 -5 -2 -5 12 0 14 2 19 5 13 2 -7 2 -19 0 -25z m61 -40 c7 -7
12 -31 12 -55 0 -51 -27 -74 -54 -47 -30 30 -16 114 19 114 6 0 16 -5 23 -12z
m-822 -28 c0 -14 3 -31 8 -38 4 -6 2 -12 -3 -12 -6 0 -11 5 -11 10 0 6 -8 10
-17 10 -17 1 -17 1 0 11 20 12 23 39 4 39 -7 0 -18 -5 -25 -12 -7 -7 -12 -8
-12 -2 0 17 13 25 35 22 14 -2 20 -11 21 -28z m94 -15 c0 -25 -4 -45 -9 -45
-5 0 -9 16 -9 36 0 19 -2 38 -5 41 -13 13 -27 -11 -27 -47 0 -21 -3 -41 -7
-43 -5 -3 -6 19 -5 49 4 52 5 54 33 54 28 0 29 -2 29 -45z m70 -6 c7 -27 9
-53 6 -56 -3 -4 -6 -1 -6 5 0 7 -9 12 -20 12 -11 0 -20 -5 -20 -12 0 -6 -3 -9
-6 -5 -8 8 16 107 26 107 4 0 13 -23 20 -51z m50 11 c5 0 12 9 15 20 3 11 11
20 17 20 6 0 4 -10 -5 -24 -14 -21 -14 -26 4 -55 10 -17 14 -31 9 -31 -5 0
-16 12 -24 28 -8 15 -16 21 -17 15 -1 -7 -2 -17 -3 -22 0 -5 -4 -13 -8 -17 -5
-4 -7 19 -7 52 1 32 4 49 6 37 2 -13 8 -23 13 -23z m124 24 c11 -29 6 -72 -10
-88 -19 -19 -26 -20 -42 -4 -13 13 -17 90 -5 101 12 13 51 7 57 -9z m78 4 c3
-7 4 -31 4 -53 -1 -36 -4 -40 -28 -43 -28 -3 -28 -2 -28 52 0 52 2 56 24 56
13 0 26 -6 28 -12z m92 -19 c5 -14 6 -38 2 -53 -5 -22 -12 -27 -34 -24 -23 3
-27 8 -30 42 -2 21 -1 45 2 53 9 23 49 11 60 -18z m55 -1 l12 -33 17 33 c23
46 32 40 32 -23 0 -58 -20 -79 -21 -22 0 31 0 31 -10 7 -10 -24 -11 -24 -25
-6 -8 11 -15 25 -15 30 -1 6 -5 -7 -9 -29 -7 -38 -7 -38 -9 18 -1 64 8 73 28
25z m179 -25 l-1 -58 -6 50 c-4 36 -11 51 -23 53 -14 3 -18 -6 -21 -50 l-3
-53 -2 58 -2 57 30 0 30 0 -2 -57z m173 30 c0 -16 2 -40 3 -55 1 -16 -2 -28
-6 -28 -4 0 -8 23 -8 50 0 37 -4 50 -14 50 -11 0 -16 -14 -18 -47 -2 -31 -8
-48 -18 -51 -12 -4 -13 -2 -2 9 6 7 12 32 12 56 0 39 2 43 25 43 20 0 25 -5
26 -27z m62 20 c-15 -3 -23 -12 -23 -24 0 -13 7 -19 23 -20 l22 -2 -22 -4
c-34 -6 -30 -41 5 -46 25 -4 25 -4 -5 -6 l-33 -1 0 55 c0 54 1 55 28 54 23 -2
24 -2 5 -6z m-988 -89 c8 3 15 1 15 -5 0 -16 -53 -6 -58 11 -5 13 -3 13 11 1
9 -7 24 -11 32 -7z m832 -48 c-5 -15 -24 -18 -24 -3 0 8 6 14 14 14 7 0 12 -5
10 -11z m22 -144 l8 -62 -23 15 c-28 18 -40 19 -26 3 8 -10 2 -13 -26 -14 -24
-1 -28 0 -12 4 23 4 24 5 5 13 -19 7 -19 8 3 8 16 1 22 7 23 24 0 21 1 21 10
2 7 -15 8 -9 4 23 -3 26 -1 42 5 42 6 0 10 6 9 13 -1 6 0 19 1 27 3 17 7 -5
19 -98z m-1092 21 c-3 -10 -5 -4 -5 12 0 17 2 24 5 18 2 -7 2 -21 0 -30z
m1365 -83 c-2 -16 -6 -30 -8 -30 -2 0 -4 14 -4 30 0 17 4 30 8 30 5 0 7 -13 4
-30z m-35 -32 c-3 -8 -6 -5 -6 6 -1 11 2 17 5 13 3 -3 4 -12 1 -19z"/>
<path d="M495 2010 c3 -5 8 -10 11 -10 2 0 4 5 4 10 0 6 -5 10 -11 10 -5 0 -7
-4 -4 -10z"/>
<path d="M419 1867 c-13 -10 -18 -51 -10 -86 1 -2 7 2 14 8 9 7 24 8 45 1 20
-5 32 -5 32 1 0 14 -42 59 -56 59 -8 0 -11 6 -8 15 7 18 4 18 -17 2z m41 -41
c0 -11 -19 -15 -25 -6 -3 5 1 10 9 10 9 0 16 -2 16 -4z"/>
<path d="M382 1828 c-7 -7 -11 -21 -11 -32 1 -21 1 -21 6 -1 3 11 10 26 15 33
13 15 6 16 -10 0z"/>
<path d="M547 1824 c-6 -7 16 -54 26 -54 13 0 7 48 -7 53 -8 3 -16 3 -19 1z"/>
<path d="M590 1300 c-6 -23 -9 -47 -7 -53 2 -7 9 10 15 38 13 61 7 72 -8 15z"/>
<path d="M1188 1625 c2 -14 8 -25 13 -25 14 0 11 26 -5 39 -11 9 -12 6 -8 -14z"/>
<path d="M1080 1560 c-13 -8 -12 -10 3 -10 9 0 17 5 17 10 0 12 -1 12 -20 0z"/>
<path d="M1055 1530 c-18 -8 -18 -9 -2 -9 10 -1 16 -5 13 -10 -3 -5 1 -11 9
-15 15 -5 45 18 45 35 0 11 -38 11 -65 -1z"/>
<path d="M1131 1374 c0 -11 3 -14 6 -6 3 7 2 16 -1 19 -3 4 -6 -2 -5 -13z"/>
<path d="M517 884 c-4 -4 -7 -25 -7 -46 0 -32 3 -39 18 -36 13 2 17 13 17 42
0 37 -13 55 -28 40z"/>
<path d="M774 877 c-11 -29 0 -72 19 -75 16 -3 18 2 15 39 -3 43 -23 64 -34
36z"/>
<path d="M950 820 c0 -11 7 -20 15 -20 8 0 15 9 15 20 0 11 -7 20 -15 20 -8 0
-15 -9 -15 -20z"/>
<path d="M1067 744 c-13 -13 -8 -86 6 -81 6 2 11 10 10 16 -2 6 2 11 8 11 6 0
9 12 7 27 -3 26 -18 39 -31 27z"/>
<path d="M410 706 c0 -14 5 -26 10 -26 6 0 10 9 10 19 0 11 -4 23 -10 26 -6 4
-10 -5 -10 -19z"/>
<path d="M564 737 c-11 -29 0 -72 19 -75 16 -3 18 2 15 39 -3 43 -23 64 -34
36z"/>
<path d="M650 730 c0 -11 7 -20 15 -20 8 0 15 9 15 20 0 11 -7 20 -15 20 -8 0
-15 -9 -15 -20z"/>
<path d="M650 680 c0 -15 5 -20 18 -18 9 2 17 10 17 18 0 8 -8 16 -17 18 -13
2 -18 -3 -18 -18z"/>
<path d="M734 736 c-10 -27 1 -71 19 -74 14 -3 17 4 17 42 0 35 -4 46 -15 46
-9 0 -18 -6 -21 -14z"/>
<path d="M0 1234 c0 -11 5 -14 16 -10 9 3 22 6 30 6 8 0 14 5 14 10 0 6 -13
10 -30 10 -21 0 -30 -5 -30 -16z"/>
<path d="M18 1203 c-21 -5 -24 -43 -4 -43 8 0 23 -3 33 -7 10 -3 15 -3 11 2
-4 4 -3 16 2 25 7 13 6 20 -6 24 -9 3 -16 5 -17 5 -1 -1 -10 -3 -19 -6z"/>
<path d="M0 1093 c0 -14 19 -17 44 -7 27 10 18 23 -14 21 -16 -1 -30 -8 -30
-14z"/>
</g>
</svg>
