<?xml version="1.0" standalone="no"?>
<!DOCTYPE svg PUBLIC "-//W3C//DTD SVG 20010904//EN"
 "http://www.w3.org/TR/2001/REC-SVG-20010904/DTD/svg10.dtd">
<svg version="1.0" xmlns="http://www.w3.org/2000/svg"
 width="231.000000pt" height="342.000000pt" viewBox="0 0 231.000000 342.000000"
 preserveAspectRatio="xMidYMid meet">

<g transform="translate(0.000000,342.000000) scale(0.100000,-0.100000)"
fill="#000000" stroke="none">
<path d="M1583 3373 l-62 -4 -11 -39 -11 -40 -337 0 -337 0 -10 23 c-8 18 -20
23 -67 27 -77 7 -75 -6 2 -15 42 -5 60 -11 60 -21 0 -11 -4 -12 -19 -4 -11 5
-42 10 -69 10 -45 0 -49 2 -48 23 1 19 -5 22 -36 25 -22 2 -38 -1 -38 -7 0 -6
-5 -11 -11 -11 -5 0 -8 3 -6 8 3 4 -14 8 -36 9 -23 1 -54 4 -69 7 -16 2 -28 1
-28 -4 0 -5 25 -12 55 -15 30 -4 57 -11 60 -15 2 -4 -6 -6 -18 -4 -84 12 -109
12 -98 1 6 -6 11 -17 11 -24 0 -10 -36 -13 -165 -13 l-165 0 0 -321 c0 -287
-2 -320 -15 -309 -17 14 -31 7 -20 -10 4 -7 18 -9 31 -6 20 5 26 1 34 -19 13
-35 13 -40 -5 -25 -10 9 -15 9 -15 1 0 -16 37 -51 55 -51 8 0 15 -4 15 -10 0
-5 -4 -10 -10 -10 -5 0 -7 -8 -3 -17 3 -10 -4 -5 -17 10 -12 16 -28 26 -36 23
-9 -3 -11 0 -7 11 5 13 2 15 -15 11 -12 -4 -20 -3 -18 1 2 3 -7 12 -21 18 -24
12 -25 11 -9 -6 25 -27 8 -32 -19 -5 -39 39 -52 32 -52 -31 0 -40 4 -55 13
-55 8 0 14 -4 14 -10 0 -5 -4 -10 -9 -10 -17 0 -22 -71 -10 -127 10 -42 18
-57 36 -64 13 -5 23 -14 23 -21 0 -7 18 -29 39 -50 24 -23 45 -55 56 -87 9
-28 21 -54 27 -57 5 -4 16 -22 24 -40 8 -19 18 -34 23 -34 5 0 18 -15 29 -34
15 -26 30 -37 55 -41 23 -5 38 -15 46 -31 6 -13 22 -29 36 -34 27 -10 74 -58
75 -75 0 -6 9 -27 20 -48 11 -21 18 -42 15 -46 -7 -13 -85 -18 -85 -6 -1 12
-39 93 -40 82 0 -4 -9 -3 -20 3 -12 6 -18 16 -14 23 4 7 4 9 -1 5 -8 -8 -42
31 -38 43 1 4 -7 4 -19 1 -14 -3 -19 -1 -14 6 4 7 2 12 -3 12 -6 0 -11 5 -11
11 0 6 7 8 16 5 14 -5 15 -4 5 8 -7 9 -20 18 -29 20 -20 7 -46 61 -37 76 3 5
0 7 -9 4 -18 -7 -66 72 -77 125 -6 30 -16 -695 -10 -754 1 -17 -3 -15 -30 10
-32 30 -32 30 -13 3 18 -26 41 -41 55 -35 3 1 13 -4 22 -11 13 -11 16 -8 23
20 7 32 8 32 14 8 7 -25 7 -25 23 10 16 33 17 23 2 -27 -8 -27 10 -30 42 -8
20 14 23 13 37 -7 9 -12 16 -18 16 -12 0 5 -5 15 -12 22 -9 9 -8 12 4 12 12 0
16 9 14 34 -1 27 1 32 12 24 7 -6 11 -17 8 -24 -3 -8 0 -11 10 -7 7 3 14 1 14
-5 0 -6 -4 -12 -9 -14 -14 -5 -24 -48 -10 -48 22 0 -37 -49 -66 -54 -30 -6
-59 -26 -37 -26 14 0 16 -36 3 -45 -5 -3 -12 -1 -16 5 -10 17 -25 11 -25 -10
0 -25 -17 -26 -23 -3 -3 14 -8 9 -20 -17 l-16 -35 2 40 c2 32 -1 40 -14 39
-17 -1 -19 12 -6 34 6 8 1 12 -15 12 -21 1 -22 2 -6 14 16 12 12 16 -35 39
-29 15 -59 27 -67 26 -8 0 8 -11 35 -23 54 -25 54 -25 -15 -48 -9 -3 3 -10 28
-17 47 -13 49 -17 25 -43 -16 -18 -16 -18 3 -12 19 7 19 7 -1 -17 l-20 -24 26
23 c14 12 28 22 31 22 3 0 6 -35 6 -77 -1 -221 1 -253 17 -247 8 4 15 17 15
30 0 13 5 24 11 24 6 0 8 -9 4 -20 -4 -11 -2 -20 4 -20 13 0 51 36 45 42 -4 5
112 2 154 -4 23 -2 29 -13 12 -23 -7 -4 -6 -13 1 -26 6 -12 8 -23 6 -26 -8 -7
-81 29 -90 44 -15 24 -100 13 -91 -12 3 -7 -2 -15 -11 -19 -9 -3 -13 -2 -10 4
3 6 0 10 -8 10 -17 0 -67 -39 -51 -40 6 0 14 3 18 7 3 4 21 7 38 7 24 1 33 6
38 22 4 16 10 20 24 14 17 -6 18 -7 3 -13 -21 -8 -22 -46 -1 -54 12 -4 13 -8
3 -14 -10 -6 -10 -10 0 -23 10 -12 18 -13 37 -4 17 8 21 15 14 23 -8 9 -3 11
17 8 l28 -4 -28 16 c-15 9 -25 20 -22 25 8 13 35 13 35 -1 0 -6 8 -8 18 -5 15
5 18 1 16 -23 -2 -33 20 -49 43 -30 14 12 10 63 -8 84 -4 6 -3 17 3 25 8 13 9
12 5 -2 -4 -11 3 -20 24 -28 27 -12 42 -50 19 -50 -5 0 -10 -16 -10 -35 0 -27
-4 -35 -18 -35 -9 0 -23 -9 -30 -20 -13 -21 -42 -28 -42 -10 0 6 -5 10 -11 10
-6 0 -8 -8 -4 -19 10 -32 -5 -49 -51 -56 -24 -3 -44 -10 -44 -15 0 -5 -14 -8
-30 -8 -23 1 -29 5 -25 15 3 8 5 19 5 24 0 5 7 9 16 9 13 0 15 6 10 27 -4 16
-10 40 -13 56 -6 32 -18 42 -29 26 -5 -8 -3 -9 5 -5 17 11 10 -24 -8 -44 -13
-13 -12 -15 2 -18 9 -2 17 -8 17 -14 0 -6 -3 -8 -7 -5 -3 4 -13 1 -21 -6 -12
-9 -16 -9 -19 1 -7 19 -23 14 -23 -7 0 -11 8 -26 18 -33 9 -7 23 -21 31 -31
12 -15 11 -17 -4 -17 -9 0 -19 9 -22 20 -11 41 -23 18 -23 -45 l0 -65 178 0
c210 0 219 -4 224 -85 l3 -50 605 0 605 0 20 42 c15 31 26 43 43 43 17 0 22 6
22 25 l0 25 111 0 c97 0 110 2 105 16 -4 10 -2 14 6 11 7 -2 12 -10 10 -16 -1
-7 19 -11 58 -11 l60 0 0 51 c0 46 -2 50 -20 44 -11 -4 -20 -2 -20 4 0 6 -16
11 -36 11 -28 0 -48 10 -84 40 -26 22 -54 40 -62 40 -23 0 -60 31 -54 46 3 8
1 14 -4 14 -6 0 -10 -4 -10 -10 0 -5 -11 -10 -25 -10 -14 0 -25 5 -25 10 0 6
-7 10 -15 10 -10 0 -15 -10 -15 -31 0 -21 4 -28 13 -23 9 6 9 4 -1 -8 -7 -9
-21 -18 -32 -21 -16 -4 -18 -1 -14 23 4 15 1 31 -5 34 -5 4 -8 12 -6 19 3 7 1
18 -4 26 -7 10 -13 11 -31 1 -19 -10 -29 -9 -60 9 -39 22 -66 29 -112 30 -16
1 -28 5 -28 10 0 4 12 7 28 4 24 -3 25 -2 6 6 -16 7 -20 16 -16 36 4 24 3 26
-24 20 -57 -13 -64 -17 -64 -31 0 -11 -21 -14 -112 -14 -77 0 -108 3 -98 10
13 8 13 10 -1 10 -11 0 -4 13 24 45 28 31 48 45 66 45 40 0 56 -15 53 -49 -2
-21 2 -33 17 -40 16 -9 21 -7 26 10 5 14 1 25 -12 34 -17 13 -17 14 5 8 12 -3
25 -9 28 -14 9 -16 54 -10 54 7 0 8 5 12 10 9 16 -10 11 1 -7 16 -11 10 -14
10 -9 2 4 -7 3 -13 -3 -13 -20 0 -22 22 -2 27 21 5 21 5 -2 22 -30 22 -56 37
-94 57 -18 9 -33 20 -33 25 0 11 -34 12 -44 2 -4 -4 -19 -9 -34 -11 -15 -2
-35 -12 -45 -23 -19 -21 -90 -26 -117 -9 -16 10 -13 12 49 28 48 11 52 32 8
32 -33 0 -35 2 -31 29 4 25 1 29 -26 35 -26 5 -35 1 -55 -22 -19 -21 -24 -23
-25 -10 0 20 -9 17 -104 -26 -47 -22 -53 -28 -49 -49 6 -30 -25 -52 -63 -44
-13 2 -24 0 -24 -4 0 -5 -5 -9 -11 -9 -6 0 -8 7 -5 16 3 8 2 12 -3 9 -5 -3
-13 0 -17 6 -4 7 -11 -1 -18 -22 -6 -19 -18 -34 -26 -34 -8 0 -23 -9 -32 -20
-15 -19 -15 -21 5 -32 27 -14 32 -10 19 14 -9 15 -7 19 10 20 15 1 18 -2 13
-15 -3 -9 -3 -13 1 -10 4 4 16 2 28 -4 l21 -11 -20 23 c-11 13 -15 20 -8 16 7
-4 23 0 35 7 13 8 38 17 57 21 19 3 42 13 51 21 8 8 35 15 60 17 42 3 45 1 67
-37 12 -22 23 -57 23 -77 l0 -38 -58 0 c-31 0 -73 4 -91 10 -24 7 -39 6 -48
-1 -7 -6 -13 -8 -13 -4 0 4 -8 1 -17 -6 -17 -13 -17 -12 -3 5 13 16 12 20 -4
31 -12 9 -26 11 -41 5 -14 -5 -26 -5 -34 3 -8 8 -11 7 -11 -6 0 -17 -9 -21
-41 -18 -9 1 -19 -7 -22 -19 -3 -11 -1 -20 5 -20 5 0 8 -8 6 -17 -3 -18 -48
-28 -48 -12 0 5 -5 9 -11 9 -5 0 -7 -6 -4 -12 4 -7 -1 -4 -9 6 -9 11 -16 26
-16 33 0 7 -7 13 -15 13 -18 0 -20 16 -2 23 6 3 0 6 -15 6 -14 1 -28 -5 -31
-11 -3 -10 -9 -8 -24 4 -18 17 -20 17 -37 0 -16 -16 -17 -16 -10 2 6 16 5 17
-14 7 -18 -9 -22 -9 -22 2 0 8 9 17 20 20 15 4 20 14 20 36 0 17 4 31 9 31 4
0 6 -11 3 -25 -4 -21 0 -25 19 -26 22 0 23 -1 4 -9 -13 -6 -15 -9 -5 -9 21 -1
116 89 112 107 -3 13 7 14 62 8 45 -4 67 -3 72 5 4 8 3 9 -4 5 -8 -5 -12 2
-12 19 0 15 4 24 10 20 6 -4 9 3 7 16 -2 13 -9 25 -15 27 -7 2 -8 12 -1 32 7
20 7 35 0 49 -9 16 -8 21 7 25 9 3 2 4 -15 2 -27 -2 -33 1 -33 16 0 11 5 16
10 13 6 -4 16 -2 23 3 7 5 25 12 41 16 39 10 96 58 96 82 0 4 6 1 14 -5 11 -9
17 -4 30 24 22 46 64 91 82 87 17 -3 18 10 3 25 -6 6 -11 31 -13 56 -3 49 -21
81 -43 73 -18 -7 -16 3 8 55 25 50 69 187 68 209 0 8 -9 -7 -20 -35 -15 -40
-18 -43 -13 -15 4 19 7 45 8 57 1 11 4 19 9 16 4 -2 7 6 8 19 0 13 6 39 13 58
10 26 18 34 32 32 31 -6 45 -26 54 -78 l9 -49 -2 65 -2 65 33 1 c35 0 60 23
39 36 -8 5 -4 15 13 34 18 19 20 24 7 17 -21 -11 -67 -5 -67 8 0 5 12 9 28 9
l27 1 -24 13 c-18 10 -20 15 -10 19 9 4 8 6 -5 6 -20 1 -20 1 0 16 15 11 16
15 4 16 -8 1 -19 1 -23 0 -5 -1 -4 6 1 14 11 21 3 75 -12 75 -6 0 -13 11 -14
25 -1 16 3 25 12 25 8 0 16 6 19 13 3 8 10 6 22 -8 16 -20 16 -20 12 3 -3 12
-1 20 4 16 5 -3 9 -15 9 -27 0 -18 2 -19 10 -7 7 11 10 11 10 2 0 -7 5 -10 10
-7 6 3 10 2 10 -4 0 -6 7 -8 15 -5 10 4 15 0 15 -16 0 -11 4 -19 9 -16 10 7
41 -76 41 -111 0 -13 5 -23 11 -23 20 0 36 -24 68 -104 7 -16 10 -31 7 -33 -9
-9 -26 8 -26 27 0 30 -19 33 -32 6 -9 -20 -14 -23 -25 -15 -9 9 -13 8 -13 0 0
-6 -5 -10 -11 -8 -15 3 -37 -34 -23 -40 17 -6 4 -62 -17 -74 -16 -8 -19 -6
-20 13 0 22 -1 22 -9 3 -11 -25 -12 -65 -2 -64 19 3 25 -2 12 -11 -12 -8 -13
-12 -2 -19 8 -4 12 -19 10 -32 -3 -26 -38 -36 -85 -24 -37 9 -17 25 35 27 l47
1 -44 4 c-47 5 -45 -3 -22 88 15 59 5 55 -13 -6 -9 -29 -22 -62 -30 -75 -8
-12 -14 -30 -14 -40 1 -11 -8 -40 -20 -66 -15 -35 -25 -46 -36 -42 -23 9 -20
27 8 57 14 15 21 29 17 31 -11 7 -51 -22 -51 -37 0 -7 -10 -23 -21 -37 -11
-14 -18 -18 -15 -10 42 126 66 203 65 213 -1 13 -89 -242 -89 -258 1 -5 6 -2
13 7 8 10 18 14 26 8 14 -8 7 -30 -10 -30 -6 0 -7 5 -3 12 5 7 3 8 -5 3 -22
-13 4 -27 31 -16 14 5 28 7 31 4 10 -9 37 24 37 45 0 15 6 19 26 16 14 -1 40
6 58 17 17 10 40 19 51 19 12 0 27 6 34 13 10 10 17 7 35 -15 14 -18 31 -28
48 -28 26 0 38 -16 38 -51 0 -17 -11 -24 -33 -20 -15 2 -54 -53 -50 -69 3 -11
16 -17 39 -18 24 -1 34 3 31 11 -2 6 -14 11 -25 9 -12 -2 -22 1 -22 5 0 11 40
11 57 0 7 -5 13 1 16 15 2 13 5 2 6 -24 1 -54 -19 -73 -66 -62 -21 4 -24 3
-13 -5 8 -5 12 -13 8 -16 -3 -3 -12 1 -21 9 -13 13 -17 13 -26 2 -8 -10 -9
-16 -2 -21 7 -4 5 -15 -5 -30 -20 -31 -12 -55 18 -55 19 0 20 2 8 10 -8 5 -10
10 -5 11 6 0 18 2 27 4 11 2 15 -2 11 -12 -4 -10 0 -14 13 -12 10 1 27 -1 37
-6 9 -4 27 -5 39 -2 14 4 26 0 35 -11 12 -16 14 -16 27 1 8 10 23 18 33 17 10
-1 31 -2 47 -1 22 1 26 4 18 14 -9 10 -6 17 8 30 11 9 20 14 20 11 0 -4 6 -1
13 5 8 6 16 8 20 5 3 -3 3 3 0 15 -3 12 -10 21 -15 21 -5 0 0 15 11 33 24 39
17 55 -12 30 -20 -17 -20 -17 -13 7 4 14 8 33 7 43 0 9 7 17 15 17 8 0 14 -7
14 -15 0 -9 9 -15 23 -15 12 0 29 -9 37 -21 8 -11 23 -25 34 -31 18 -10 18 -9
0 16 -11 14 -22 26 -26 26 -5 0 -8 7 -8 15 0 8 -7 15 -16 15 -8 0 -12 5 -9 10
8 12 64 -32 82 -64 12 -21 12 -21 13 4 1 22 2 23 9 6 10 -25 52 -32 67 -11 11
15 15 15 49 1 37 -16 55 -14 55 5 0 6 -5 7 -12 3 -7 -5 -9 -2 -5 8 4 12 1 14
-14 11 -24 -7 -47 20 -43 51 1 11 3 24 3 29 1 4 11 7 24 8 20 0 20 1 3 8 -17
7 -15 10 16 29 35 21 78 30 78 15 -1 -18 -17 -32 -45 -36 l-30 -4 33 -2 c24
-1 32 -6 32 -20 0 -11 8 -27 17 -36 16 -16 17 -16 30 1 12 16 13 16 13 1 0
-20 9 -21 33 -3 16 13 16 14 -5 28 -22 15 -22 16 -5 41 20 31 5 37 -25 10 -10
-9 -18 -11 -18 -5 0 15 44 44 73 48 12 2 47 10 77 19 30 9 60 17 67 19 7 1 16
6 20 10 8 9 -39 3 -69 -9 -17 -7 -18 10 -18 275 l0 283 -52 -45 c-29 -25 -52
-50 -51 -54 1 -5 -4 -12 -11 -16 -15 -9 -9 -58 6 -58 7 0 7 -5 1 -12 -16 -22
-15 -78 1 -103 11 -16 12 -26 5 -30 -6 -4 -8 -13 -5 -21 3 -8 2 -14 -3 -14 -4
0 -8 -7 -8 -15 0 -12 3 -12 15 -2 13 10 14 8 7 -13 -9 -32 -57 -72 -69 -59 -6
6 -6 13 1 20 9 9 5 24 -13 59 -21 40 -23 51 -13 72 9 21 8 30 -6 52 -17 25
-35 35 -35 18 0 -4 7 -18 16 -30 21 -31 8 -46 -21 -25 -21 17 -22 20 -10 50 7
17 11 33 9 36 -3 3 21 27 52 53 32 27 76 68 98 92 22 24 69 59 103 79 35 19
75 50 88 67 22 29 25 43 25 115 l0 83 -57 -51 c-31 -28 -61 -51 -65 -51 -4 0
-8 185 -8 410 l0 411 -164 -3 -164 -3 9 23 c5 13 9 25 9 28 0 2 -27 4 -61 4
-33 0 -58 4 -55 8 3 5 -6 15 -20 23 -21 11 -29 11 -46 0 -11 -7 -17 -8 -13 -2
3 7 -1 10 -12 9 -10 -1 -46 -3 -80 -5z m57 -23 c11 -7 -4 -10 -48 -10 -40 0
-61 4 -57 10 8 13 85 13 105 0z m-440 -118 c0 -9 -13 -12 -45 -11 -25 2 -45 8
-45 14 0 6 19 11 45 11 31 0 45 -4 45 -14z m-150 -44 c0 -32 9 -34 14 -2 2 10
12 18 24 19 19 1 22 -4 22 -34 0 -36 0 -36 -45 -36 l-45 0 0 36 c0 19 3 39 7
42 14 15 23 5 23 -25z m-140 -28 c1 -22 2 -23 11 -7 6 10 8 25 5 33 -4 10 2
14 22 14 24 0 27 -4 28 -33 0 -28 -3 -32 -25 -34 -14 -1 -38 -3 -54 -6 -27 -4
-27 -3 -21 32 4 20 9 40 12 45 7 13 22 -16 22 -44z m96 10 c0 -22 -4 -40 -8
-40 -4 0 -8 18 -8 40 0 22 4 40 8 40 5 0 8 -18 8 -40z m150 28 c4 -6 2 -14 -4
-16 -17 -5 -15 -22 3 -22 8 0 15 9 15 19 0 29 17 34 24 8 12 -45 8 -52 -32
-52 -31 0 -38 4 -40 23 -6 43 16 69 34 40z m104 -28 c0 -22 -4 -40 -10 -40
-11 0 -14 63 -3 73 11 12 13 8 13 -33z m40 31 c0 -5 3 -22 6 -38 5 -25 3 -29
-16 -29 -16 0 -20 5 -16 21 3 11 6 28 6 38 0 9 5 17 10 17 6 0 10 -4 10 -9z
m50 -31 c0 -26 -4 -37 -15 -37 -11 0 -15 11 -15 37 0 26 4 37 15 37 11 0 15
-11 15 -37z m90 -11 c0 -16 -5 -26 -15 -26 -15 0 -22 57 -8 70 10 11 23 -14
23 -44z m-40 6 c0 -28 -4 -35 -20 -35 -16 0 -20 7 -20 35 0 28 4 35 20 35 16
0 20 -7 20 -35z m241 -24 c-11 -30 -15 -54 -10 -63 5 -7 9 -8 10 -3 2 31 11
61 19 69 20 20 18 -1 -4 -49 -22 -48 -23 -49 -35 -28 -9 18 -8 33 5 73 9 27
20 50 25 50 5 0 1 -22 -10 -49z m52 34 c-3 -9 -8 -14 -10 -11 -3 3 -2 9 2 15
9 16 15 13 8 -4z m-999 -65 c7 -50 -6 -29 -19 30 -5 23 -4 32 3 25 5 -5 13
-30 16 -55z m96 42 c0 -5 -11 -19 -24 -31 -22 -21 -24 -21 -28 -4 -2 10 3 23
12 30 17 14 40 17 40 5z m756 -27 c4 -8 11 -12 18 -8 6 3 6 0 -2 -8 -10 -11
-16 -10 -34 9 -20 19 -20 22 -5 22 10 0 20 -7 23 -15z m-734 -31 c-3 -15 1
-29 7 -34 8 -5 14 -44 16 -113 l3 -107 -37 19 c-42 22 -67 48 -57 59 4 4 25
-3 47 -15 24 -13 39 -17 39 -10 0 7 -15 19 -33 28 -19 9 -33 25 -35 37 -4 25
1 27 29 12 24 -13 24 -2 -1 28 -11 13 -24 21 -29 18 -6 -4 -6 5 -1 25 5 18 7
36 3 42 -4 6 -1 7 6 3 8 -5 14 0 18 13 8 31 31 27 25 -5z m678 6 c0 -5 -5 -10
-11 -10 -5 0 -7 5 -4 10 3 6 8 10 11 10 2 0 4 -4 4 -10z m-751 -26 c1 11 4 17
7 13 8 -7 -5 -47 -16 -47 -12 0 -21 30 -13 43 4 7 9 3 14 -9 7 -19 8 -19 8 0z
m901 -44 c0 -5 -7 -10 -16 -10 -8 0 -12 5 -9 10 3 6 10 10 16 10 5 0 9 -4 9
-10z m-400 -24 c0 -11 -19 -15 -25 -6 -3 5 1 10 9 10 9 0 16 -2 16 -4z m212
-125 c-1 -52 5 -122 12 -156 8 -33 17 -82 21 -109 6 -42 4 -48 -9 -43 -12 5
-16 -1 -17 -26 -1 -18 -3 -24 -6 -14 -3 10 -14 17 -27 17 -17 0 -23 6 -23 23
-1 39 -3 47 -13 47 -6 0 -14 -11 -19 -23 -8 -20 -15 -23 -43 -19 -18 3 -27 7
-20 9 6 3 12 15 12 28 0 18 -6 24 -27 27 -35 4 -41 35 -19 99 9 26 12 45 6 47
-12 4 -3 22 11 22 5 0 9 -8 9 -17 0 -14 2 -15 9 -5 5 8 6 33 3 57 -6 61 3 91
28 91 15 0 20 -5 17 -18 -3 -10 -1 -16 4 -12 5 3 9 0 9 -6 0 -6 4 -9 9 -5 5 3
12 1 16 -5 8 -13 25 -13 25 1 0 5 -4 7 -10 4 -5 -3 -10 -1 -10 4 0 6 -7 11
-16 11 -8 0 -12 5 -9 11 4 6 -1 16 -11 24 -15 10 -16 16 -7 25 9 10 17 7 35
-10 l23 -22 9 37 c16 60 30 14 28 -94z m78 109 c-8 -5 -17 -7 -19 -4 -3 3 1 9
9 14 8 5 17 7 19 4 3 -3 -1 -9 -9 -14z m41 -7 c-8 -15 -10 -15 -11 -2 0 17 10
32 18 25 2 -3 -1 -13 -7 -23z m-367 3 c25 -10 35 -22 39 -46 10 -46 2 -52 -62
-46 -31 3 -60 5 -65 5 -6 1 -5 6 2 13 7 7 12 23 12 35 0 24 18 52 33 53 4 0
23 -6 41 -14z m-323 -51 c0 -11 6 -38 12 -60 l12 -39 17 34 c11 22 18 28 18
17 0 -12 4 -16 13 -10 33 21 39 13 32 -46 -6 -49 -4 -59 14 -75 11 -10 23 -32
27 -50 3 -17 11 -37 16 -44 8 -9 2 -14 -22 -19 -20 -4 -35 -13 -38 -25 -3 -14
-7 -16 -13 -7 -5 8 -10 1 -16 -22 -7 -27 -15 -35 -38 -37 -27 -4 -28 -3 -22
37 3 23 2 39 -3 36 -10 -6 -18 -74 -9 -77 3 -2 9 -12 13 -23 5 -17 1 -20 -24
-20 -33 0 -36 5 -18 23 9 9 8 12 -5 12 -9 0 -17 5 -17 11 0 7 -7 17 -15 23
-12 9 -12 18 -2 53 8 31 8 46 0 54 -8 8 -4 26 16 67 20 43 26 74 27 127 2 109
3 113 14 95 5 -8 10 -24 11 -35z m764 15 c3 -5 2 -10 -4 -10 -5 0 -13 5 -16
10 -3 6 -2 10 4 10 5 0 13 -4 16 -10z m45 -62 c0 -20 -4 -26 -15 -22 -8 4 -15
10 -15 16 0 5 -4 7 -9 3 -5 -3 -13 0 -17 6 -5 8 1 10 20 7 18 -4 26 -1 26 8 0
8 -4 14 -10 14 -5 0 -10 8 -10 18 1 31 30 -18 30 -50z m-170 2 c0 -5 -5 -10
-11 -10 -5 0 -7 5 -4 10 3 6 8 10 11 10 2 0 4 -4 4 -10z m-341 -48 c10 -7 31
-10 53 -7 l36 5 -2 -42 c-2 -45 -17 -58 -43 -36 -14 11 -16 11 -9 0 6 -10 3
-13 -10 -10 -11 2 -19 12 -19 23 0 13 -7 20 -20 20 -11 0 -20 6 -19 13 1 6 2
27 3 45 2 18 5 26 8 17 4 -8 13 -21 22 -28z m-382 4 c25 -22 26 -25 10 -31
-20 -8 -57 19 -57 42 0 20 15 16 47 -11z m743 -6 c0 -5 -2 -10 -4 -10 -3 0 -8
5 -11 10 -3 6 -1 10 4 10 6 0 11 -4 11 -10z m132 -15 c5 -6 8 -5 8 3 0 7 5 10
10 7 20 -12 9 -24 -20 -22 -16 1 -30 8 -30 15 0 14 21 12 32 -3z m-582 -20 c0
-8 -7 -15 -15 -15 -8 0 -15 7 -15 15 0 8 7 15 15 15 8 0 15 -7 15 -15z m620
-116 l0 -29 63 31 c65 32 107 35 147 9 23 -14 7 -21 -27 -11 -48 14 -107 -3
-162 -44 -43 -33 -82 -88 -70 -100 2 -2 26 12 53 31 26 20 45 38 42 41 -3 4
-16 -2 -28 -13 l-23 -18 20 22 c12 12 31 24 43 27 12 2 27 7 32 10 6 3 10 1
10 -6 0 -8 5 -7 18 3 10 9 37 16 63 16 37 0 52 -5 78 -30 l33 -31 -4 -112 c-1
-62 -6 -111 -10 -109 -4 3 -6 -4 -5 -15 1 -16 4 -18 15 -9 11 9 11 7 1 -15 -7
-15 -17 -27 -22 -27 -6 0 -7 -3 -3 -7 4 -4 17 4 29 18 12 13 19 20 15 15 -11
-14 -10 -28 1 -22 5 4 7 -3 4 -15 -4 -12 -11 -18 -20 -15 -8 3 -11 1 -8 -4 8
-12 -82 -103 -97 -98 -6 2 -17 22 -24 44 -6 21 -13 32 -13 24 -1 -8 -8 0 -16
18 -8 18 -12 39 -9 47 7 16 -11 21 -20 6 -3 -5 -1 -34 5 -64 8 -40 15 -54 25
-50 19 7 18 -21 -1 -37 -12 -10 -16 -9 -21 4 -4 10 -13 15 -20 12 -10 -4 -14
3 -14 23 0 16 -7 34 -15 41 -12 10 -13 16 -3 28 11 13 10 15 -5 9 -21 -8 -57
24 -57 51 0 29 31 112 41 112 6 0 4 6 -3 14 -7 7 -18 12 -24 9 -19 -7 -26 15
-13 39 11 22 11 22 -16 -2 -34 -31 -55 -71 -55 -105 0 -17 -4 -24 -11 -19 -7
4 -9 21 -4 48 6 37 10 66 14 110 0 8 17 35 36 60 32 42 33 45 15 51 -20 6 -26
37 -14 69 10 25 34 0 34 -35z m-1249 25 c-25 -8 -47 -12 -49 -9 -8 7 40 24 68
23 18 0 12 -4 -19 -14z m296 -16 c-3 -8 -6 -5 -6 6 -1 11 2 17 5 13 3 -3 4
-12 1 -19z m433 12 c0 -5 -9 -10 -19 -10 -11 0 -23 5 -26 10 -4 6 5 10 19 10
14 0 26 -4 26 -10z m-653 -17 c4 -12 -52 -23 -81 -15 -17 5 -13 8 19 18 44 14
57 13 62 -3z m113 -48 c38 -55 42 -94 4 -44 -14 19 -30 33 -35 32 -5 -2 -9 2
-9 9 0 7 -12 25 -27 40 l-27 28 32 -11 c20 -7 44 -28 62 -54z m560 23 c0 -6 6
-8 14 -5 10 4 12 0 9 -14 -6 -21 -23 -26 -24 -6 0 6 -4 3 -9 -9 -11 -28 -69
-22 -67 6 1 10 5 16 10 13 5 -3 15 4 23 15 14 21 44 20 44 0z m387 -20 c-3 -8
-6 -5 -6 6 -1 11 2 17 5 13 3 -3 4 -12 1 -19z m-1007 -43 c-14 -17 -30 -20
-30 -4 0 5 5 7 10 4 6 -3 10 -1 10 4 0 6 5 11 11 11 8 0 8 -5 -1 -15z m655
-25 c3 -5 1 -10 -4 -10 -6 0 -11 5 -11 10 0 6 2 10 4 10 3 0 8 -4 11 -10z
m-660 -32 c-19 -11 -30 -5 -21 11 4 6 14 7 22 4 15 -5 14 -7 -1 -15z m765 1
c0 -11 -12 -41 -27 -66 -16 -29 -26 -59 -25 -78 2 -23 -2 -32 -13 -32 -9 0
-12 4 -7 9 5 5 7 29 4 53 -3 33 0 45 9 45 10 0 10 3 1 12 -7 7 -12 20 -12 30
0 10 -5 18 -12 18 -20 0 0 12 34 20 48 12 48 12 48 -11z m-655 -16 c4 -16 8
-35 9 -44 2 -8 -3 -24 -10 -34 -8 -10 -14 -14 -14 -8 0 7 4 14 9 18 9 5 4 34
-14 78 -4 10 -3 17 4 17 6 0 13 -12 16 -27z m356 5 c5 -7 23 -9 54 -5 26 4 57
4 70 1 30 -8 42 -34 15 -34 -11 0 -20 7 -20 15 0 18 -30 20 -31 3 0 -10 -2
-10 -5 -1 -4 8 -13 9 -30 3 -13 -5 -31 -7 -41 -3 -10 4 -14 2 -10 -4 4 -5 -4
-20 -17 -32 -16 -16 -26 -19 -31 -11 -4 6 -5 14 -2 16 3 3 -1 22 -10 41 l-14
36 32 -7 c18 -3 36 -11 40 -18z m-232 -22 c0 -14 -2 -16 -6 -6 -3 8 -10 21
-16 28 -7 9 -6 11 7 6 9 -3 16 -16 15 -28z m-671 -15 c-2 -15 -10 -27 -21 -29
-14 -3 -16 0 -8 21 6 16 6 28 -1 35 -8 8 -5 9 11 5 17 -4 21 -12 19 -32z
m1110 5 c2 -18 0 -26 -7 -22 -5 4 -7 14 -4 22 3 9 0 20 -8 26 -12 8 -11 9 1 5
8 -2 16 -16 18 -31z m-1028 14 c0 -5 -4 -10 -10 -10 -5 0 -10 5 -10 10 0 6 5
10 10 10 6 0 10 -4 10 -10z m114 -21 c3 -17 16 -53 28 -80 21 -44 25 -48 55
-47 25 1 33 6 33 20 0 30 17 21 50 -26 34 -50 39 -71 13 -62 -9 4 -37 10 -60
13 -37 5 -42 3 -37 -10 3 -8 -2 -29 -10 -46 -21 -39 -20 -44 5 -31 34 19 34 2
0 -17 -17 -10 -31 -22 -31 -27 0 -5 7 -3 16 5 13 11 14 9 9 -12 -5 -21 0 -27
40 -47 52 -25 66 -51 59 -113 -8 -69 -13 -87 -30 -103 -22 -22 -37 -20 -29 4
4 11 3 20 -2 19 -31 -7 -82 39 -67 62 3 5 -3 9 -13 9 -15 0 -15 2 -4 9 12 8
12 12 2 24 -10 12 -10 20 0 36 10 15 10 25 2 43 -6 13 -13 30 -16 38 -2 10 -8
6 -19 -14 l-15 -28 -17 82 c-10 45 -15 84 -12 87 3 4 6 0 6 -8 0 -25 71 -86
78 -66 1 4 -1 7 -4 6 -3 0 -14 9 -24 21 -15 17 -16 27 -9 53 5 17 6 40 3 51
-4 13 -3 16 6 11 8 -5 11 -4 7 2 -11 18 -43 149 -39 161 7 22 19 13 26 -19z
m51 -25 c26 -60 31 -84 16 -84 -9 0 -32 62 -44 118 -9 37 2 25 28 -34z m260
46 c3 -5 -3 -10 -15 -10 -12 0 -18 5 -15 10 3 6 10 10 15 10 5 0 12 -4 15 -10z
m-588 -32 c-3 -7 -5 -2 -5 12 0 14 2 19 5 13 2 -7 2 -19 0 -25z m443 17 c-14
-17 0 -21 17 -4 6 6 17 8 23 4 16 -10 -6 -25 -37 -25 -22 0 -31 19 -16 33 13
14 25 6 13 -8z m-250 -25 c0 -3 -11 -5 -25 -5 -30 0 -31 3 -8 21 17 11 32 4
33 -16z m1196 12 c-2 -4 0 -16 4 -27 4 -11 4 -32 -1 -47 -4 -15 -3 -44 3 -65
12 -43 14 -135 4 -152 -4 -6 -14 -11 -21 -11 -8 0 -12 -6 -9 -14 3 -8 1 -17
-5 -21 -7 -3 -8 0 -5 9 3 9 1 16 -6 16 -6 0 -8 5 -5 10 4 6 -6 9 -26 8 -18 -2
-34 2 -36 10 -3 8 6 12 26 12 35 0 53 26 30 41 -12 8 -11 11 4 20 24 14 21 38
-5 48 l-21 8 23 16 c13 9 25 24 26 34 1 10 5 32 9 49 4 19 3 34 -4 38 -5 4 -8
13 -5 21 4 8 10 12 15 9 5 -3 8 -8 5 -12z m-815 -33 c9 -19 23 -34 30 -34 16
0 24 -70 14 -123 -5 -29 -8 -32 -21 -21 -13 10 -17 10 -24 -1 -7 -11 -14 -11
-39 0 -43 17 -61 47 -60 95 l1 40 9 -32 c8 -29 14 -33 44 -33 18 0 37 5 40 10
4 6 11 8 16 4 7 -4 9 5 7 22 -3 26 -6 29 -38 27 -34 -1 -34 -1 -13 14 21 14
21 15 2 34 -11 11 -17 24 -13 30 10 17 28 4 45 -32z m-444 -14 c-5 -13 -27
-14 -50 -2 -14 6 -16 12 -7 22 8 10 16 10 35 1 14 -6 23 -15 22 -21z m683 -15
c0 -15 -6 -30 -14 -33 -11 -4 -14 1 -11 21 1 15 3 33 4 40 2 25 21 1 21 -28z
m224 31 c3 -5 -1 -12 -10 -15 -8 -3 -13 -2 -9 3 3 5 -1 12 -7 14 -8 4 -7 6 4
6 9 1 19 -3 22 -8z m-317 -23 c-3 -8 -6 -5 -6 6 -1 11 2 17 5 13 3 -3 4 -12 1
-19z m-515 -40 c2 -20 0 -34 -4 -32 -4 3 -8 24 -7 47 1 47 6 41 11 -15z m922
22 c66 -31 89 -91 27 -67 -15 6 -34 19 -40 29 -11 18 -10 18 11 7 18 -9 21 -9
11 1 -6 7 -26 15 -44 19 -35 7 -53 31 -23 31 10 0 36 -9 58 -20z m-247 -22
c-3 -7 -5 -2 -5 12 0 14 2 19 5 13 2 -7 2 -19 0 -25z m113 -2 c-5 -5 -10 -26
-10 -45 0 -45 -15 -72 -23 -42 -3 12 -1 21 4 21 5 0 9 5 9 11 0 5 -4 8 -9 5
-4 -3 -16 1 -26 8 -26 18 -13 70 15 63 11 -3 20 0 20 5 0 6 6 5 15 -2 11 -9
13 -16 5 -24z m47 28 c-3 -3 -12 -4 -19 -1 -8 3 -5 6 6 6 11 1 17 -2 13 -5z
m309 -29 c-7 -19 -27 -16 -34 5 -3 7 0 10 7 6 6 -4 11 0 11 10 0 14 3 15 11 7
7 -7 9 -19 5 -28z m-1376 -6 c0 -5 -4 -9 -10 -9 -5 0 -10 7 -10 16 0 8 5 12
10 9 6 -3 10 -10 10 -16z m144 9 c-6 -10 -5 -10 8 -1 19 16 28 7 28 -26 0 -14
4 -32 9 -40 5 -7 5 -25 2 -40 -6 -20 -13 -25 -32 -23 -32 5 -37 12 -17 23 18
10 13 52 -6 43 -6 -3 -1 3 12 14 28 26 28 32 -3 32 -24 0 -32 10 -18 23 11 12
24 7 17 -5z m451 2 c-3 -5 -16 -10 -28 -10 -18 0 -19 2 -7 10 20 13 43 13 35
0z m1075 -14 c0 -3 -4 -8 -10 -11 -5 -3 -10 -1 -10 4 0 6 5 11 10 11 6 0 10
-2 10 -4z m467 -55 c-12 -8 -28 -23 -35 -33 -7 -10 -22 -22 -32 -28 -32 -17
-13 16 34 60 26 25 43 34 48 27 4 -6 -3 -18 -15 -26z m-1911 -24 c-3 -12 -12
-31 -21 -42 -14 -19 -15 -18 -5 9 6 16 9 35 6 43 -3 7 -3 20 1 29 5 15 7 15
15 -1 6 -9 7 -26 4 -38z m-210 16 c-7 -7 -26 7 -26 19 0 6 6 6 15 -2 9 -7 13
-15 11 -17z m806 13 c10 -7 15 -15 12 -18 -10 -10 -44 4 -44 18 0 17 10 17 32
0z m133 4 c12 -20 15 -79 5 -85 -8 -5 -7 -11 0 -20 7 -8 9 -18 6 -23 -3 -6 3
-12 14 -15 11 -3 19 -2 18 2 0 3 0 24 1 46 1 39 2 40 15 15 8 -16 9 -29 3 -37
-6 -8 -2 -24 12 -46 19 -32 20 -77 0 -77 -5 0 -9 -7 -9 -15 0 -9 -10 -15 -26
-15 -19 0 -25 -4 -21 -14 4 -10 1 -13 -9 -9 -10 4 -14 -3 -14 -25 0 -17 -11
-48 -25 -68 l-25 -37 6 34 c6 28 4 32 -7 22 -21 -21 -29 -15 -18 14 7 19 6 28
-2 34 -7 4 -8 12 -3 20 5 8 9 30 9 49 0 29 4 36 22 38 21 3 30 18 36 63 2 8 7
21 12 29 8 13 6 13 -8 1 -10 -8 -24 -10 -34 -6 -10 5 -27 10 -37 12 -37 7 -29
13 17 13 26 0 47 5 47 10 0 6 -9 10 -19 10 -11 0 -23 5 -26 10 -3 6 -15 10
-26 10 -10 0 -19 4 -19 9 0 5 20 6 45 3 50 -5 55 1 23 35 l-21 23 26 0 c14 0
29 -5 32 -10z m-660 -10 c3 -5 1 -10 -4 -10 -6 0 -11 5 -11 10 0 6 2 10 4 10
3 0 8 -4 11 -10z m1718 -5 c4 -8 3 -16 -1 -19 -4 -3 -9 4 -9 15 -2 23 3 25 10
4z m-1893 -5 c0 -5 -7 -10 -16 -10 -8 0 -12 5 -9 10 3 6 10 10 16 10 5 0 9 -4
9 -10z m1398 -17 c16 -16 16 -16 -1 -10 -10 4 -25 7 -33 7 -9 0 -12 5 -9 10 9
15 24 12 43 -7z m-688 -28 c16 -19 1 -19 -24 0 -16 12 -17 15 -4 15 8 0 21 -7
28 -15z m688 -5 c26 -24 29 -45 6 -36 -9 3 -23 6 -32 6 -9 0 -26 7 -37 16 -17
13 -18 16 -5 24 23 15 44 12 68 -10z m-168 -15 c0 -14 -21 -16 -58 -6 -2 1 0
6 3 11 10 16 55 12 55 -5z m-520 -30 c6 -8 9 -19 5 -24 -3 -6 -1 -19 4 -30 8
-15 4 -31 -20 -76 -26 -50 -30 -65 -24 -103 4 -29 3 -42 -4 -38 -10 6 -8 -15
3 -52 3 -9 10 -39 15 -65 8 -44 7 -47 -8 -34 -52 45 -36 8 25 -56 29 -31 67
-87 58 -87 -14 0 -74 42 -74 52 0 6 -3 9 -6 5 -4 -3 -15 4 -25 16 -10 12 -18
18 -19 14 0 -4 -20 4 -45 19 -32 18 -55 25 -76 22 l-31 -5 23 18 c32 25 41 24
106 -13 55 -31 56 -31 40 -8 -10 14 -39 33 -65 42 -40 15 -42 18 -15 15 18 -2
30 0 27 5 -3 4 -15 8 -27 8 -12 0 -29 5 -37 10 -10 6 -22 4 -38 -6 -26 -17
-35 -15 -23 4 4 7 22 14 40 14 19 1 30 6 28 12 -5 12 36 18 71 10 13 -2 20 -8
17 -13 -2 -5 2 -11 10 -15 25 -9 17 11 -16 38 -17 14 -25 26 -19 26 7 0 10 7
6 15 -3 9 -1 37 6 64 10 46 9 51 -22 110 -28 52 -31 64 -19 72 22 14 41 11 65
-12 l22 -21 7 22 c4 12 2 27 -4 33 -6 6 -11 15 -11 19 0 14 37 9 50 -7z m855
5 c8 -13 -5 -13 -25 0 -13 8 -13 10 2 10 9 0 20 -4 23 -10z m319 -21 c-41 -43
-104 -92 -110 -86 -10 9 107 110 135 116 3 1 -8 -13 -25 -30z m-1214 -10 c0
-5 -7 -6 -15 -3 -8 4 -15 13 -15 21 0 13 3 13 15 3 8 -7 15 -16 15 -21z m744
6 c-4 -8 -7 -15 -9 -15 -2 0 -5 7 -9 15 -3 9 0 15 9 15 9 0 12 -6 9 -15z m76
-31 c0 13 6 11 26 -11 17 -18 24 -35 21 -50 -2 -13 0 -23 4 -23 20 0 7 -38
-22 -66 l-32 -29 7 28 c6 26 -18 87 -35 87 -3 0 -6 18 -6 40 0 39 0 40 18 24
18 -16 19 -16 19 0z m-130 -19 c0 -2 -9 -3 -19 -2 -11 0 -18 5 -15 9 4 6 34 0
34 -7z m334 -6 c-10 -12 -59 -55 -109 -96 l-90 -75 85 81 c77 74 118 109 129
110 2 1 -4 -9 -15 -20z m-327 -23 c13 -12 -5 -16 -31 -7 -31 12 -33 8 -6 -19
13 -13 21 -16 21 -7 1 6 5 -26 10 -73 8 -86 -1 -136 -27 -153 -7 -4 -15 -21
-19 -37 -4 -16 -11 -32 -16 -35 -5 -4 -9 -11 -9 -16 0 -6 5 -7 10 -4 6 3 10
-1 10 -9 0 -9 -5 -16 -11 -16 -7 0 -10 -20 -7 -55 1 -30 0 -55 -4 -55 -5 0 -9
26 -9 58 -1 44 -3 50 -8 27 -5 -25 -8 -27 -14 -12 -4 10 -3 26 2 36 6 10 11
29 13 43 2 14 9 32 14 39 6 8 14 26 18 41 3 14 9 34 13 44 5 13 3 15 -8 10 -8
-4 -6 -1 4 7 21 17 22 27 3 27 -9 0 -12 7 -9 19 3 10 -1 30 -8 42 -12 22 -20
105 -12 120 3 7 71 -6 80 -15z m373 -50 c-19 -19 -39 -32 -45 -28 -5 3 -7 2
-3 -3 11 -12 -40 -48 -54 -39 -10 6 -10 4 0 -8 10 -13 10 -17 -2 -21 -9 -4
-19 -1 -22 5 -10 15 138 150 151 137 5 -6 -4 -22 -25 -43z m-148 12 c-9 -9
-12 -7 -12 12 0 19 3 21 12 12 9 -9 9 -15 0 -24z m-322 -5 c0 -22 -2 -25 -10
-13 -13 20 -13 40 0 40 6 0 10 -12 10 -27z m493 -40 c-6 -22 -98 -95 -107 -86
-7 7 89 103 103 103 5 0 7 -8 4 -17z m-863 -21 c0 -15 -2 -15 -10 -2 -13 20
-13 33 0 25 6 -3 10 -14 10 -23z m700 -72 c0 -13 -51 -59 -73 -66 -10 -3 -14
-10 -10 -17 4 -7 -2 -5 -12 3 -17 14 -18 13 -12 -2 4 -11 0 -21 -10 -27 -17
-9 -22 -88 -8 -123 4 -10 4 -18 1 -18 -3 0 -12 16 -20 35 -11 25 -19 33 -30
29 -19 -7 -20 -25 -3 -44 6 -8 1 -6 -12 5 -16 14 -22 15 -19 6 8 -25 37 -38
48 -21 8 12 10 11 10 -6 0 -58 -40 -104 -91 -104 -36 0 -68 97 -37 116 8 5 9
2 5 -9 -4 -10 -4 -31 0 -48 5 -25 10 -30 31 -27 14 2 27 10 29 18 4 12 3 12
-5 1 -7 -9 -15 -11 -27 -4 -16 9 -16 11 4 25 11 8 18 17 15 20 -10 11 25 78
41 78 9 0 15 6 13 13 -6 15 -48 22 -48 8 0 -6 -7 -11 -15 -11 -18 0 -20 20 -2
20 7 0 4 7 -7 15 -11 8 -14 15 -8 15 7 0 12 13 12 30 0 38 23 40 75 4 27 -18
36 -21 31 -9 -3 9 -2 14 3 11 5 -3 12 1 15 10 4 9 9 14 13 10 3 -3 15 8 25 24
21 36 78 65 78 40z m190 -10 c0 -5 -2 -10 -4 -10 -3 0 -8 5 -11 10 -3 6 -1 10
4 10 6 0 11 -4 11 -10z m-1100 -10 c0 -5 -2 -10 -4 -10 -3 0 -8 5 -11 10 -3 6
-1 10 4 10 6 0 11 -4 11 -10z m1077 -70 c-1 -11 -5 -20 -9 -20 -11 0 -20 19
-13 30 11 17 24 11 22 -10z m-1227 -14 c0 -2 -7 -7 -16 -10 -8 -3 -12 -2 -9 4
6 10 25 14 25 6z m-379 -43 c13 -16 12 -17 -3 -4 -10 7 -18 15 -18 17 0 8 8 3
21 -13z m290 -16 c-10 -9 -11 -8 -5 6 3 10 9 15 12 12 3 -3 0 -11 -7 -18z
m1230 -2 c1 -17 -18 -17 -25 0 -4 11 -1 15 10 13 8 -2 15 -7 15 -13z m109 -10
c0 -8 -9 -19 -20 -25 -23 -12 -50 -60 -50 -90 0 -28 -33 -38 -92 -28 -37 7
-54 6 -66 -4 -9 -7 -13 -8 -9 -2 4 7 -2 14 -14 17 -12 3 -22 0 -26 -9 -5 -14
-23 -10 -23 6 0 14 61 44 98 48 18 2 40 -2 47 -8 20 -16 45 -5 45 20 0 11 4
20 10 20 5 0 12 11 16 25 4 16 18 31 38 39 34 15 46 12 46 -9z m-1335 -19
c-30 -24 -43 -27 -30 -6 6 10 39 27 55 29 3 1 -8 -10 -25 -23z m1170 14 c-3
-5 -11 -10 -16 -10 -6 0 -7 5 -4 10 3 6 11 10 16 10 6 0 7 -4 4 -10z m-1225
-35 c9 -11 9 -15 1 -15 -7 0 -9 -4 -6 -10 3 -5 2 -10 -3 -10 -5 0 -12 11 -14
25 -6 28 3 32 22 10z m226 -34 c-19 -30 -55 1 -42 36 6 15 9 15 28 -4 11 -12
17 -26 14 -32z m-36 -24 c10 -2 23 0 29 6 18 18 24 -1 11 -35 -19 -47 -38 -67
-61 -61 -17 5 -19 14 -18 77 0 58 2 66 10 45 6 -15 18 -29 29 -32z m974 41
c-3 -4 -14 -8 -25 -8 -11 0 -18 4 -14 9 3 6 14 9 25 8 10 -1 16 -5 14 -9z
m341 -18 c3 -5 -1 -10 -10 -10 -9 0 -13 5 -10 10 3 6 8 10 10 10 2 0 7 -4 10
-10z m-1517 -42 c14 -14 16 -42 3 -33 -10 6 -41 -49 -41 -74 0 -8 -17 -33 -37
-55 -37 -38 -29 -41 12 -6 19 17 55 23 55 10 0 -3 -5 -11 -12 -18 -7 -7 -9
-12 -4 -12 4 0 -6 -11 -22 -25 -17 -14 -33 -25 -37 -25 -4 0 -19 -12 -32 -27
-14 -14 -28 -22 -31 -17 -4 5 -14 9 -22 9 -9 0 -15 11 -16 33 -1 23 2 32 11
28 7 -2 18 7 24 20 14 31 14 37 -1 28 -11 -7 -9 15 8 74 5 18 2 22 -17 22 -29
0 -16 13 19 18 15 2 47 16 72 32 53 34 52 34 68 18z m1081 -26 c-26 -32 -39
-62 -40 -89 l0 -28 -10 24 c-5 13 -12 22 -14 19 -3 -3 2 -21 10 -41 18 -44 14
-47 -69 -53 -65 -4 -76 1 -90 40 -5 15 -4 17 8 7 11 -9 15 -9 19 1 3 8 9 4 15
-12 l11 -25 2 30 c1 17 1 33 0 38 0 4 5 7 12 7 6 0 25 7 41 15 16 9 35 14 40
12 11 -4 31 11 34 26 4 19 37 67 40 57 2 -6 -2 -19 -9 -28z m-189 -30 c0 -11
-8 -18 -21 -19 -20 -2 -20 -1 -4 18 22 24 25 24 25 1z m293 -32 c4 0 5 6 1 13
-4 6 -4 9 0 5 4 -3 6 -8 4 -11 -1 -3 6 -14 16 -26 11 -12 17 -23 15 -25 -9 -9
-69 36 -69 52 0 12 3 13 12 4 7 -7 16 -12 21 -12z m-243 6 c0 -3 -4 -8 -10
-11 -5 -3 -10 -1 -10 4 0 6 5 11 10 11 6 0 10 -2 10 -4z m-625 -39 c-4 -8 -13
-18 -22 -21 -10 -4 -13 -2 -10 8 3 7 0 19 -6 26 -9 10 -9 11 0 6 6 -3 15 -1
18 5 10 16 27 -4 20 -24z m40 -4 c17 -40 15 -52 -5 -28 -13 15 -24 65 -14 65
2 0 11 -16 19 -37z m-175 17 c0 -5 -5 -10 -11 -10 -5 0 -7 5 -4 10 3 6 8 10
11 10 2 0 4 -4 4 -10z m-177 -27 c-7 -2 -19 -2 -25 0 -7 3 -2 5 12 5 14 0 19
-2 13 -5z m167 -13 c-21 -13 -47 -12 -56 2 -5 7 -2 9 7 6 8 -3 23 -2 34 2 25
9 35 2 15 -10z m45 -70 c4 -16 11 -30 17 -30 6 0 8 12 5 30 -7 34 -1 36 28 14
20 -15 20 -15 -5 -34 -28 -22 -30 -23 -47 -12 -15 10 -28 62 -15 62 6 0 13
-13 17 -30z m-163 -12 c-9 -9 -12 -7 -12 12 0 19 3 21 12 12 9 -9 9 -15 0 -24z
m88 18 c0 -8 -4 -18 -10 -21 -5 -3 -10 3 -10 14 0 12 5 21 10 21 6 0 10 -6 10
-14z m-120 -56 c4 0 6 -10 4 -22 -2 -13 -2 -17 2 -10 3 6 10 12 16 12 5 0 -2
-14 -15 -30 -20 -23 -25 -37 -20 -63 5 -35 -15 -67 -42 -67 -11 0 -12 6 -5 26
7 16 7 23 0 19 -6 -3 -10 0 -10 8 0 8 -7 17 -15 21 -20 7 -20 -23 0 -38 11 -8
12 -15 4 -26 -9 -13 -10 -12 -5 3 3 10 0 17 -8 17 -8 0 -16 14 -18 30 -4 24
-1 30 14 30 10 0 18 5 18 10 0 6 -10 8 -24 4 -30 -7 -42 27 -15 44 15 10 20 8
29 -8 6 -11 15 -18 21 -14 6 4 5 12 -3 22 -11 13 -10 15 4 9 12 -4 15 -2 11 9
-3 8 3 26 13 41 l17 28 10 -28 c5 -15 12 -27 17 -27z m-255 -20 c-3 -5 -11
-10 -16 -10 -6 0 -7 5 -4 10 3 6 11 10 16 10 6 0 7 -4 4 -10z m115 -56 c0 -8
-4 -12 -10 -9 -5 3 -10 10 -10 16 0 5 5 9 10 9 6 0 10 -7 10 -16z m375 -34 c3
-5 -1 -10 -9 -10 -9 0 -16 5 -16 10 0 6 4 10 9 10 6 0 13 -4 16 -10z m-485
-70 c13 -9 13 -10 0 -9 -8 0 -24 4 -35 9 l-20 9 20 0 c11 0 27 -4 35 -9z m165
-57 c-3 -52 -15 -93 -27 -93 -5 0 -6 -10 -3 -22 5 -17 -1 -12 -21 14 -16 21
-36 38 -44 38 -8 0 -22 5 -30 10 -11 8 -8 9 14 6 16 -3 39 -15 52 -27 30 -29
31 -13 2 19 -18 20 -19 24 -5 19 13 -5 17 -1 17 15 0 21 26 58 41 58 4 0 6
-17 4 -37z m65 14 c0 -19 -27 -53 -36 -44 -8 8 15 57 28 57 4 0 8 -6 8 -13z
m54 -87 c-6 -6 -10 7 -10 33 l-1 42 10 -33 c6 -20 7 -36 1 -42z m-204 -15 c0
-9 8 -27 17 -42 l17 -25 -44 22 c-35 18 -48 20 -62 11 -11 -6 -23 -9 -27 -6
-5 3 -12 -2 -15 -10 -3 -10 -1 -15 7 -13 6 2 13 -2 14 -7 2 -9 -16 -9 -44 0
-33 11 35 65 90 70 10 1 20 5 24 9 11 11 23 6 23 -9z m290 -5 c0 -11 -7 -20
-15 -20 -8 0 -15 9 -15 20 0 11 7 20 15 20 8 0 15 -9 15 -20z m-57 -4 c4 -10
1 -13 -8 -9 -8 3 -12 9 -9 14 7 12 11 11 17 -5z m-153 -46 l-8 -35 -1 31 c-1
17 2 34 6 37 11 12 12 3 3 -33z m905 -20 c3 -5 2 -10 -4 -10 -5 0 -13 5 -16
10 -3 6 -2 10 4 10 5 0 13 -4 16 -10z m-977 -35 c-2 -1 -17 0 -35 2 -20 3 -30
10 -27 18 4 10 11 10 35 -2 17 -8 29 -16 27 -18z m1022 6 c0 -18 -18 -21 -30
-6 -10 13 -9 15 9 15 11 0 21 -4 21 -9z m-1130 -111 c0 -5 -5 -10 -11 -10 -5
0 -7 5 -4 10 3 6 8 10 11 10 2 0 4 -4 4 -10z m274 -60 c-1 -14 -3 -27 -3 -30
-1 -3 -10 -6 -20 -6 -28 0 -36 41 -14 70 16 21 19 22 29 7 6 -9 10 -27 8 -41z
m936 50 c0 -5 -4 -10 -9 -10 -6 0 -13 5 -16 10 -3 6 1 10 9 10 9 0 16 -4 16
-10z m-690 -50 c0 -5 -5 -10 -11 -10 -5 0 -7 5 -4 10 3 6 8 10 11 10 2 0 4 -4
4 -10z m855 -90 c-3 -4 6 -11 20 -14 33 -8 34 -36 1 -30 -13 2 -37 11 -52 19
l-29 15 25 1 c19 1 21 2 6 6 -14 4 -16 7 -6 13 15 9 42 2 35 -10z m165 -114
c0 -8 -4 -18 -10 -21 -5 -3 -10 3 -10 14 0 12 5 21 10 21 6 0 10 -6 10 -14z
m155 4 c3 -6 -1 -7 -9 -4 -18 7 -21 14 -7 14 6 0 13 -4 16 -10z m-118 -46 c-3
-3 -12 -4 -19 -1 -8 3 -5 6 6 6 11 1 17 -2 13 -5z"/>
<path d="M775 3059 c-9 -14 0 -22 18 -17 13 2 13 5 2 15 -10 9 -16 9 -20 2z"/>
<path d="M1420 2610 c0 -5 5 -10 10 -10 6 0 10 5 10 10 0 6 -4 10 -10 10 -5 0
-10 -4 -10 -10z"/>
<path d="M1410 2580 c0 -5 7 -7 15 -4 8 4 15 8 15 10 0 2 -7 4 -15 4 -8 0 -15
-4 -15 -10z"/>
<path d="M1200 2926 c0 -3 9 -10 20 -16 11 -6 20 -8 20 -6 0 3 -9 10 -20 16
-11 6 -20 8 -20 6z"/>
<path d="M915 2619 c-10 -15 3 -25 16 -12 7 7 7 13 1 17 -6 3 -14 1 -17 -5z"/>
<path d="M1910 2630 c0 -5 5 -10 10 -10 6 0 10 5 10 10 0 6 -4 10 -10 10 -5 0
-10 -4 -10 -10z"/>
<path d="M1783 2618 c-6 -7 -14 -20 -19 -28 -7 -13 -5 -13 16 1 25 17 38 39
22 39 -5 0 -14 -6 -19 -12z"/>
<path d="M1963 2560 c0 -25 2 -35 4 -22 2 12 2 32 0 45 -2 12 -4 2 -4 -23z"/>
<path d="M1856 2545 c5 -12 4 -16 -3 -12 -12 8 -36 -17 -26 -26 3 -4 17 -7 30
-7 27 0 32 30 8 50 -13 11 -14 10 -9 -5z"/>
<path d="M1784 2528 l-19 -23 23 19 c21 18 27 26 19 26 -2 0 -12 -10 -23 -22z"/>
<path d="M1650 2519 c0 -5 5 -7 10 -4 6 3 10 8 10 11 0 2 -4 4 -10 4 -5 0 -10
-5 -10 -11z"/>
<path d="M1904 2486 c-15 -12 -17 -18 -8 -33 14 -23 29 -18 28 8 0 14 4 18 14
14 12 -4 13 -3 2 10 -15 18 -12 18 -36 1z"/>
<path d="M1830 2446 c0 -3 7 -12 16 -20 23 -23 40 -19 19 4 -16 18 -35 26 -35
16z"/>
<path d="M1756 2408 c-11 -42 -7 -86 9 -92 10 -3 31 9 56 33 l41 38 -27 22
c-37 28 -71 28 -79 -1z m68 -3 c11 -8 18 -17 15 -19 -2 -3 -15 4 -29 14 -14
11 -20 20 -15 19 6 0 19 -6 29 -14z m-24 -57 c0 -17 -28 -7 -33 11 -4 17 -2
18 14 8 10 -6 19 -15 19 -19z"/>
<path d="M1017 2500 c4 -16 8 -18 19 -9 16 13 10 29 -11 29 -8 0 -11 -7 -8
-20z"/>
<path d="M353 2295 c0 -8 4 -15 9 -15 4 0 8 7 8 15 0 8 -4 15 -8 15 -5 0 -9
-7 -9 -15z"/>
<path d="M386 2295 c-9 -26 -7 -32 5 -12 6 10 9 21 6 23 -2 3 -7 -2 -11 -11z"/>
<path d="M340 2266 c0 -2 7 -6 15 -10 8 -3 15 -1 15 4 0 6 -7 10 -15 10 -8 0
-15 -2 -15 -4z"/>
<path d="M570 2319 c13 -23 18 -23 61 -3 21 9 25 13 11 10 -13 -2 -36 -1 -52
4 -28 8 -29 7 -20 -11z"/>
<path d="M419 1478 c-5 -18 -6 -38 -1 -34 7 8 12 36 6 36 -2 0 -4 -1 -5 -2z"/>
<path d="M385 1410 c-3 -5 -1 -10 4 -10 6 0 11 5 11 10 0 6 -2 10 -4 10 -3 0
-8 -4 -11 -10z"/>
<path d="M1490 1503 c0 -10 4 -14 8 -8 4 6 11 13 16 18 5 4 2 7 -7 7 -10 0
-17 -8 -17 -17z"/>
<path d="M1805 3369 c-40 -6 -39 -6 13 -8 51 -1 65 3 40 11 -7 2 -31 1 -53 -3z"/>
<path d="M50 2670 c0 -5 4 -10 9 -10 6 0 13 5 16 10 3 6 -1 10 -9 10 -9 0 -16
-4 -16 -10z"/>
<path d="M46 2626 c3 -8 12 -12 20 -9 7 3 17 -2 20 -11 7 -17 24 -22 24 -6 0
8 -51 40 -64 40 -3 0 -3 -6 0 -14z"/>
<path d="M1153 2232 c9 -9 23 -11 36 -7 33 10 24 25 -15 23 -30 -1 -33 -3 -21
-16z"/>
<path d="M1246 2044 c-9 -25 -7 -34 9 -34 9 0 12 6 9 15 -5 11 1 15 22 15 23
0 26 2 14 10 -23 15 -47 12 -54 -6z"/>
<path d="M2056 1965 c-3 -8 -1 -15 4 -15 13 0 22 18 11 24 -5 3 -11 -1 -15 -9z"/>
<path d="M1168 1793 c6 -2 18 -2 25 0 6 3 1 5 -13 5 -14 0 -19 -2 -12 -5z"/>
<path d="M2263 1683 c-18 -2 -33 -8 -33 -12 0 -10 59 -1 66 10 3 5 4 8 2 7 -2
0 -18 -3 -35 -5z"/>
<path d="M1968 1643 c7 -3 16 -2 19 1 4 3 -2 6 -13 5 -11 0 -14 -3 -6 -6z"/>
<path d="M2194 1623 c10 -10 69 -12 86 -2 10 5 -5 9 -39 9 -30 0 -51 -3 -47
-7z"/>
<path d="M1120 1598 c0 -2 4 -19 10 -38 10 -35 9 -35 -8 -12 -10 13 -21 20
-25 16 -9 -9 40 -47 52 -39 11 6 -5 61 -20 71 -5 3 -9 4 -9 2z"/>
<path d="M2127 1594 c-4 -4 -2 -13 4 -21 9 -10 7 -13 -9 -13 -11 0 -25 -7 -32
-15 -7 -8 -20 -15 -29 -15 -9 0 -22 -5 -29 -12 -9 -9 -12 -9 -12 0 0 9 -6 9
-25 0 -14 -6 -25 -15 -25 -19 0 -5 -12 -20 -27 -35 -16 -15 -23 -24 -17 -20
14 7 27 -21 14 -29 -5 -3 -7 -12 -3 -20 3 -8 0 -15 -6 -15 -20 0 -26 -2 -37
-11 -6 -5 -18 -7 -25 -4 -8 3 -19 -5 -26 -20 -9 -20 -8 -28 3 -39 19 -19 18
-26 -3 -27 -15 0 -15 -2 2 -8 11 -5 23 -7 28 -4 9 5 9 -11 0 -20 -3 -4 -12 -2
-19 4 -9 7 -15 6 -20 -3 -13 -21 -14 -42 -1 -50 9 -6 9 -8 0 -8 -7 0 -10 -6
-7 -13 3 -8 -2 -19 -10 -26 -12 -10 -12 -19 -1 -64 7 -29 16 -68 19 -87 3 -20
21 -67 39 -105 19 -39 37 -82 41 -97 3 -16 13 -28 20 -28 17 0 29 41 16 54 -6
6 -10 17 -10 25 1 12 4 11 12 -4 17 -30 17 -30 38 -7 12 12 16 22 11 22 -6 0
-16 10 -22 23 -12 22 -12 22 10 3 18 -17 21 -17 21 -3 0 11 8 17 23 16 12 0
39 4 60 9 39 10 80 6 72 -8 -3 -5 -1 -11 5 -15 7 -4 10 107 10 338 l0 344 31
-5 c44 -7 29 14 -17 22 -19 4 -41 9 -48 12 -7 2 -15 2 -19 -2z m-67 -98 c0 -8
-4 -17 -9 -21 -12 -7 -24 12 -16 25 9 15 25 12 25 -4z m-47 -11 c7 -16 -8 -29
-23 -20 -15 9 -12 35 4 35 8 0 16 -7 19 -15z m152 -66 c0 -7 -8 -15 -17 -17
-18 -3 -25 18 -11 32 10 10 28 1 28 -15z m-258 -71 c-2 -7 3 -18 12 -25 9 -6
13 -14 9 -18 -4 -4 -14 2 -24 13 -14 16 -22 19 -37 11 -10 -6 -21 -8 -24 -6
-4 5 44 34 60 36 5 1 7 -5 4 -11z m30 -3 c0 -8 -4 -15 -9 -15 -4 0 -8 7 -8 15
0 8 4 15 8 15 5 0 9 -7 9 -15z m-33 -130 c-4 -8 -8 -15 -10 -15 -2 0 -4 7 -4
15 0 8 4 15 10 15 5 0 7 -7 4 -15z m-37 -52 c-3 -3 -11 -2 -17 2 -9 6 -9 10 1
16 14 8 27 -7 16 -18z m33 -37 c0 -8 -4 -18 -10 -21 -5 -3 -10 -14 -10 -23 0
-9 -7 -25 -14 -35 -13 -16 -14 -14 -9 25 6 43 18 68 34 68 5 0 9 -6 9 -14z
m25 -46 c-3 -5 -11 -10 -16 -10 -6 0 -7 5 -4 10 3 6 11 10 16 10 6 0 7 -4 4
-10z m-25 -51 c0 -6 -4 -7 -10 -4 -5 3 -10 11 -10 16 0 6 5 7 10 4 6 -3 10
-11 10 -16z m136 -21 c5 -8 1 -9 -12 -4 -15 6 -17 5 -6 -5 19 -20 14 -31 -7
-17 -11 7 -17 16 -14 21 3 5 -9 6 -28 2 -25 -4 -30 -3 -19 4 20 14 77 14 86
-1z m-53 -41 c34 -15 68 -47 48 -47 -6 0 -11 5 -11 10 0 6 -6 10 -12 11 -7 0
-31 9 -53 19 -46 21 -21 27 28 7z m-63 -25 c0 -5 -7 -9 -15 -9 -8 0 -15 4 -15
9 0 4 7 8 15 8 8 0 15 -4 15 -8z"/>
<path d="M1939 1553 c-13 -16 -12 -17 4 -4 16 13 21 21 13 21 -2 0 -10 -8 -17
-17z"/>
<path d="M1077 1416 c-17 -13 -17 -15 5 -40 19 -22 28 -25 53 -18 24 7 26 9
11 15 -10 4 -22 5 -27 1 -5 -3 -17 0 -26 6 -16 10 -15 10 4 5 12 -3 24 -1 28
5 3 5 -3 10 -14 10 -14 0 -19 5 -15 15 7 18 4 18 -19 1z"/>
<path d="M1889 1413 c12 -24 31 -39 31 -25 0 5 -10 17 -21 28 -22 19 -22 19
-10 -3z"/>
<path d="M1918 1423 c7 -3 16 -2 19 1 4 3 -2 6 -13 5 -11 0 -14 -3 -6 -6z"/>
<path d="M1720 1400 c0 -5 5 -10 11 -10 5 0 7 5 4 10 -3 6 -8 10 -11 10 -2 0
-4 -4 -4 -10z"/>
<path d="M1856 1402 c-3 -5 1 -9 9 -9 8 0 15 4 15 9 0 4 -4 8 -9 8 -6 0 -12
-4 -15 -8z"/>
<path d="M1820 1360 c-9 -6 -10 -10 -3 -10 6 0 15 5 18 10 8 12 4 12 -15 0z"/>
<path d="M1646 1337 c3 -10 9 -15 12 -12 3 3 0 11 -7 18 -10 9 -11 8 -5 -6z"/>
<path d="M1590 1336 c0 -2 7 -6 15 -10 8 -3 15 -1 15 4 0 6 -7 10 -15 10 -8 0
-15 -2 -15 -4z"/>
<path d="M103 1299 c16 -26 33 -30 34 -9 1 11 -7 20 -22 22 -20 4 -22 3 -12
-13z"/>
<path d="M987 1298 c6 -11 31 -10 37 1 3 5 -5 8 -18 7 -13 0 -22 -4 -19 -8z"/>
<path d="M1488 1259 c-2 -19 6 -30 40 -51 23 -15 42 -34 42 -42 0 -18 19 -24
50 -16 24 6 24 6 5 17 -11 6 -17 15 -12 19 4 4 15 0 24 -8 11 -10 39 -16 72
-17 46 -1 52 1 37 12 -10 7 -16 19 -14 27 2 8 -5 16 -14 18 -13 2 -18 -3 -18
-17 0 -12 -6 -21 -15 -21 -18 0 -19 12 -4 27 14 14 -78 58 -143 68 -43 7 -47
6 -50 -16z m97 -9 c-3 -5 -22 -10 -41 -10 -21 0 -33 4 -29 10 3 6 22 10 41 10
21 0 33 -4 29 -10z m75 -57 c0 -19 -13 -9 -16 12 -1 8 2 13 7 9 5 -3 9 -12 9
-21z m60 -13 c0 -5 -5 -10 -11 -10 -5 0 -7 5 -4 10 3 6 8 10 11 10 2 0 4 -4 4
-10z"/>
<path d="M224 1254 c3 -9 6 -18 6 -20 0 -3 5 -2 10 1 16 10 12 35 -6 35 -11 0
-14 -5 -10 -16z"/>
<path d="M1393 1263 c-25 -9 -12 -22 21 -20 18 1 32 7 29 12 -4 12 -30 15 -50
8z"/>
<path d="M998 1242 c-10 -2 -18 -8 -18 -13 0 -13 27 -11 35 2 9 13 4 16 -17
11z"/>
<path d="M770 1220 c-9 -6 -10 -10 -3 -10 6 0 15 5 18 10 8 12 4 12 -15 0z"/>
<path d="M952 1198 c2 -6 11 -13 19 -16 12 -3 12 -2 0 6 -11 8 -11 10 0 15 10
4 8 6 -4 6 -10 1 -17 -4 -15 -11z"/>
<path d="M1460 1200 c0 -5 9 -14 20 -20 16 -8 18 -8 14 4 -6 17 -34 30 -34 16z"/>
<path d="M827 1172 c-15 -10 -24 -21 -21 -25 3 -3 16 3 28 14 12 12 30 19 43
16 12 -2 20 0 17 4 -8 14 -37 10 -67 -9z"/>
<path d="M1440 1190 c-7 -26 -7 -60 0 -60 16 0 20 18 11 42 -6 12 -10 21 -11
18z"/>
<path d="M1775 1181 c-3 -5 -1 -12 5 -16 5 -3 10 1 10 9 0 18 -6 21 -15 7z"/>
<path d="M1480 1150 c0 -5 5 -10 11 -10 5 0 7 5 4 10 -3 6 -8 10 -11 10 -2 0
-4 -4 -4 -10z"/>
<path d="M864 1134 c-13 -5 -6 -54 7 -54 5 0 9 6 9 14 0 9 8 12 25 8 20 -3 25
0 25 17 0 16 -6 21 -27 20 -16 0 -33 -3 -39 -5z"/>
<path d="M1560 1110 c0 -13 -7 -20 -20 -20 -24 0 -43 -39 -28 -56 9 -12 48 -8
49 5 0 3 2 25 5 49 3 23 3 42 0 42 -3 0 -6 -9 -6 -20z"/>
<path d="M1500 1110 c18 -12 30 -13 30 -2 0 4 -10 9 -22 9 -18 2 -20 0 -8 -7z"/>
<path d="M810 1083 c0 -26 25 -31 34 -7 4 9 2 13 -5 8 -6 -4 -15 0 -20 7 -6
10 -9 8 -9 -8z"/>
<path d="M1600 1090 c-7 -5 -6 -11 4 -19 8 -7 17 -8 20 -3 3 6 24 9 46 8 22 0
40 2 40 7 0 4 -6 7 -12 8 -60 5 -89 5 -98 -1z"/>
<path d="M1639 1031 c7 -11 20 -21 31 -21 28 0 36 -21 14 -37 -16 -12 -20 -11
-26 4 -5 11 -6 7 -3 -12 4 -16 17 -38 31 -48 13 -10 24 -25 24 -33 0 -30 28
-13 34 22 4 19 10 42 13 50 3 9 -1 14 -12 14 -14 0 -16 6 -12 28 3 15 3 32 -1
37 -8 12 -42 16 -42 6 0 -10 -31 -7 -49 3 -10 7 -11 4 -2 -13z"/>
<path d="M765 1020 c3 -5 11 -10 16 -10 6 0 7 5 4 10 -3 6 -11 10 -16 10 -6 0
-7 -4 -4 -10z"/>
<path d="M918 923 c7 -3 16 -2 19 1 4 3 -2 6 -13 5 -11 0 -14 -3 -6 -6z"/>
<path d="M905 900 c-3 -5 -1 -10 4 -10 6 0 11 5 11 10 0 6 -2 10 -4 10 -3 0
-8 -4 -11 -10z"/>
<path d="M2086 885 c4 -8 8 -15 10 -15 2 0 4 7 4 15 0 8 -4 15 -10 15 -5 0 -7
-7 -4 -15z"/>
<path d="M877 883 c-4 -3 -7 -11 -7 -17 0 -6 5 -5 12 2 6 6 9 14 7 17 -3 3 -9
2 -12 -2z"/>
<path d="M1570 870 c0 -24 6 -25 26 -6 19 20 18 26 -6 26 -13 0 -20 -7 -20
-20z"/>
<path d="M2170 860 c0 -5 -18 -8 -40 -5 -45 4 -58 -6 -33 -26 12 -10 14 -10 9
-1 -5 8 0 12 14 12 12 0 19 -4 15 -9 -3 -5 0 -13 6 -17 8 -4 9 -3 5 4 -4 7 -2
12 3 12 6 0 11 -7 11 -15 0 -8 5 -15 10 -15 6 0 10 16 10 35 0 19 -2 35 -5 35
-3 0 -5 -4 -5 -10z"/>
<path d="M930 850 c19 -13 30 -13 30 0 0 6 -10 10 -22 10 -19 0 -20 -2 -8 -10z"/>
<path d="M620 830 c0 -5 7 -10 16 -10 8 0 12 5 9 10 -3 6 -10 10 -16 10 -5 0
-9 -4 -9 -10z"/>
<path d="M1678 823 c6 -3 12 -13 12 -24 0 -10 5 -19 10 -19 6 0 10 10 10 23 0
17 -6 23 -22 24 -13 0 -17 -1 -10 -4z"/>
<path d="M1761 823 c0 -5 8 -21 18 -38 16 -26 23 -30 67 -31 27 -1 43 1 37 3
-7 3 -13 11 -13 19 0 8 -6 15 -12 15 -7 1 -17 2 -23 4 -5 1 -21 3 -34 3 -16 2
-21 6 -17 17 3 9 0 15 -9 15 -8 0 -15 -3 -14 -7z"/>
<path d="M1968 798 c-8 -22 4 -58 18 -58 8 0 14 5 14 10 0 6 -5 10 -10 10 -6
0 -8 11 -4 25 6 25 -10 37 -18 13z"/>
<path d="M2041 801 c-12 -8 -12 -12 -2 -25 16 -19 36 -11 38 14 2 21 -13 25
-36 11z"/>
<path d="M139 798 c0 -2 -2 -24 -4 -50 -4 -48 10 -74 22 -41 4 10 11 21 16 24
13 9 -11 51 -25 43 -7 -5 -8 -2 -4 5 5 7 15 10 23 7 8 -3 11 -1 8 4 -5 9 -33
14 -36 8z"/>
<path d="M2120 785 c-7 -8 -16 -13 -20 -10 -5 3 -7 -6 -5 -20 3 -30 15 -47 15
-22 0 10 4 17 9 17 14 0 19 -23 10 -42 -8 -14 -4 -16 19 -14 24 3 27 8 30 43
3 34 -1 41 -22 51 -19 9 -27 8 -36 -3z"/>
<path d="M250 710 c0 -5 6 -10 14 -10 8 0 18 5 21 10 3 6 -3 10 -14 10 -12 0
-21 -4 -21 -10z"/>
<path d="M1960 711 c0 -6 4 -13 10 -16 6 -3 7 1 4 9 -7 18 -14 21 -14 7z"/>
<path d="M375 700 c3 -5 8 -10 11 -10 2 0 4 5 4 10 0 6 -5 10 -11 10 -5 0 -7
-4 -4 -10z"/>
<path d="M2161 663 c7 -10 15 -20 16 -22 2 -2 3 5 3 17 0 14 -6 22 -16 22 -14
0 -15 -3 -3 -17z"/>
<path d="M143 410 c-82 -50 -85 -181 -5 -238 46 -34 91 -36 141 -10 99 53 108
168 21 242 -40 33 -109 36 -157 6z m153 -15 c67 -51 68 -155 3 -209 -24 -20
-41 -26 -81 -26 -45 0 -54 4 -89 39 -35 35 -39 44 -39 91 0 47 4 56 39 91 34
34 44 39 86 39 36 0 57 -6 81 -25z"/>
<path d="M130 291 c0 -37 4 -51 14 -51 18 0 17 91 -1 98 -9 2 -13 -11 -13 -47z"/>
<path d="M177 333 c-2 -4 -4 -26 -3 -48 1 -38 3 -40 34 -43 l33 -3 -3 48 c-3
44 -5 48 -30 51 -14 2 -28 0 -31 -5z m43 -23 c0 -5 -4 -10 -10 -10 -5 0 -10 5
-10 10 0 6 5 10 10 10 6 0 10 -4 10 -10z m-8 -52 c-9 -9 -12 -7 -12 12 0 19 3
21 12 12 9 -9 9 -15 0 -24z"/>
<path d="M291 318 c0 -10 -8 -18 -16 -18 -8 0 -15 -4 -15 -10 0 -5 6 -10 14
-10 8 0 17 -8 19 -17 4 -17 5 -17 6 0 0 9 8 17 16 17 8 0 15 5 15 10 0 6 -6
10 -14 10 -8 0 -17 8 -19 18 -4 16 -5 16 -6 0z"/>
<path d="M422 248 c2 -21 8 -33 18 -33 10 0 16 12 18 33 3 27 0 32 -18 32 -18
0 -21 -5 -18 -32z m28 2 c0 -11 -4 -20 -10 -20 -5 0 -10 9 -10 20 0 11 5 20
10 20 6 0 10 -9 10 -20z"/>
<path d="M471 245 c1 -22 3 -32 6 -22 2 9 8 17 13 17 5 0 11 -8 13 -17 3 -10
5 0 6 22 0 30 -2 36 -9 25 -9 -13 -11 -13 -20 0 -7 11 -9 5 -9 -25z"/>
<path d="M520 245 c1 -37 2 -39 15 -21 15 19 15 19 15 1 0 -12 3 -16 10 -9 5
5 6 22 2 39 -6 21 -11 25 -16 16 -7 -11 -10 -11 -17 0 -6 9 -9 0 -9 -26z"/>
<path d="M620 263 c0 -10 -3 -27 -6 -38 -4 -17 0 -20 26 -21 23 -1 30 2 26 13
-4 8 -6 26 -6 39 0 17 -6 24 -20 24 -12 0 -20 -7 -20 -17z m30 -13 c0 -11 -4
-20 -9 -20 -5 0 -7 9 -4 20 3 11 7 20 9 20 2 0 4 -9 4 -20z"/>
<path d="M674 266 c-9 -23 0 -51 16 -51 10 0 16 12 18 33 2 24 -1 32 -13 32
-8 0 -18 -6 -21 -14z m26 -22 c0 -14 -4 -23 -10 -19 -5 3 -10 15 -10 26 0 10
5 19 10 19 6 0 10 -12 10 -26z"/>
<path d="M764 266 c-9 -23 0 -51 15 -51 8 0 16 7 18 15 4 13 3 13 -6 0 -9 -12
-11 -9 -11 13 0 16 4 26 10 22 6 -3 10 -1 10 4 0 16 -30 13 -36 -3z"/>
<path d="M810 246 c0 -29 3 -33 20 -29 11 3 20 10 21 17 0 6 4 2 9 -9 7 -16 9
-13 9 18 1 20 -3 37 -9 37 -5 0 -10 -8 -10 -17 -1 -17 -1 -17 -14 0 -19 25
-26 21 -26 -17z"/>
<path d="M880 244 c0 -32 2 -34 30 -32 17 1 30 6 30 12 0 5 7 14 17 21 24 18
8 33 -37 33 -39 1 -40 0 -40 -34z m43 13 c8 -21 -6 -37 -23 -27 -12 8 -12 10
-1 10 11 0 11 3 1 15 -10 12 -10 15 3 15 8 0 17 -6 20 -13z"/>
<path d="M978 250 c2 -16 8 -30 12 -30 4 0 10 14 12 30 4 23 1 30 -12 30 -13
0 -16 -7 -12 -30z"/>
<path d="M1021 245 c0 -36 1 -38 13 -22 14 18 14 18 19 0 3 -10 5 -1 6 20 0
20 -3 37 -9 37 -5 0 -10 -8 -11 -17 0 -15 -2 -15 -9 2 -7 16 -9 11 -9 -20z"/>
<path d="M1114 243 c0 -24 3 -30 12 -22 8 7 14 6 17 -3 2 -7 4 3 4 22 -1 26
-5 36 -17 36 -11 0 -16 -10 -16 -33z"/>
<path d="M1164 266 c-9 -23 0 -51 16 -51 10 0 16 12 18 33 2 24 -1 32 -13 32
-8 0 -18 -6 -21 -14z m26 -22 c0 -14 -4 -23 -10 -19 -5 3 -10 15 -10 26 0 10
5 19 10 19 6 0 10 -12 10 -26z"/>
<path d="M1218 249 c5 -36 22 -38 22 -3 0 34 20 21 21 -14 0 -15 3 -21 6 -14
4 10 8 10 19 1 11 -9 14 -6 14 20 0 41 20 40 21 -1 l2 -33 4 30 c3 16 10 33
16 37 7 4 -20 7 -59 7 l-70 -1 4 -29z"/>
<path d="M1394 266 c-9 -23 0 -51 15 -51 8 0 16 7 18 15 4 13 3 13 -6 0 -9
-12 -11 -12 -16 2 -8 20 2 41 16 33 5 -4 9 -1 9 4 0 16 -30 13 -36 -3z"/>
<path d="M1440 243 c0 -31 12 -40 16 -12 1 5 3 17 4 27 1 9 6 1 10 -18 l7 -35
2 38 c1 31 -2 37 -19 37 -16 0 -20 -7 -20 -37z"/>
<path d="M1500 268 c0 -7 -3 -24 -6 -38 -6 -20 -4 -23 6 -13 10 10 17 10 27 1
12 -10 13 -6 7 18 -4 16 -9 32 -11 37 -7 12 -23 8 -23 -5z"/>
<path d="M1544 268 c-10 -15 5 -58 21 -58 16 0 30 18 20 28 -3 3 -10 0 -15 -8
-8 -12 -10 -9 -10 10 0 19 5 26 20 26 14 0 20 -7 20 -23 0 -36 18 -35 22 1 4
34 3 35 -34 34 -21 0 -41 -5 -44 -10z"/>
<path d="M1641 245 c0 -36 1 -38 13 -22 14 18 14 18 19 0 3 -10 5 0 6 22 0 36
-1 38 -13 22 -14 -18 -14 -18 -19 0 -3 10 -5 0 -6 -22z"/>
<path d="M1731 248 c0 -18 3 -27 6 -19 5 11 7 11 14 0 8 -12 10 -12 18 0 7 11
10 10 14 -5 2 -10 5 -2 6 19 0 20 -3 37 -9 37 -5 0 -10 -8 -10 -17 -1 -17 -1
-17 -14 0 -19 25 -26 21 -25 -15z"/>
<path d="M1801 245 c0 -36 1 -38 13 -22 14 18 14 18 19 0 3 -10 5 -1 6 21 1
32 -1 36 -13 27 -11 -9 -15 -9 -19 1 -3 7 -6 -5 -6 -27z"/>
<path d="M1850 250 c0 -34 5 -37 26 -16 21 21 17 46 -6 46 -16 0 -20 -7 -20
-30z"/>
<path d="M770 105 c0 -24 5 -35 15 -35 18 0 20 26 3 34 -10 5 -10 7 0 12 17 8
15 24 -3 24 -10 0 -15 -11 -15 -35z"/>
<path d="M810 104 c0 -27 4 -34 20 -34 16 0 20 7 20 33 0 26 -4 33 -20 34 -16
1 -20 -4 -20 -33z"/>
<path d="M867 133 c-14 -13 -7 -63 8 -63 10 0 15 11 15 35 0 33 -8 43 -23 28z"/>
<path d="M904 124 c3 -9 7 -25 7 -37 1 -14 4 -9 9 13 l7 35 2 -33 c1 -30 3
-32 16 -18 8 8 15 24 15 35 0 17 -6 21 -31 21 -24 0 -30 -3 -25 -16z"/>
<path d="M970 105 c0 -21 5 -32 15 -32 10 0 15 11 15 32 0 21 -5 32 -15 32
-10 0 -15 -11 -15 -32z"/>
<path d="M1019 103 l5 -38 7 35 6 35 2 -32 c1 -44 17 -42 19 2 1 30 -2 35 -21
35 -21 0 -22 -4 -18 -37z"/>
<path d="M1090 105 c0 -24 5 -35 15 -35 10 0 15 11 15 35 0 24 -5 35 -15 35
-10 0 -15 -11 -15 -35z"/>
<path d="M1158 110 c-3 -17 -1 -33 4 -36 4 -3 8 1 8 8 0 10 2 10 8 1 4 -7 18
-11 30 -10 19 1 22 6 19 29 -1 16 -6 28 -10 28 -4 0 -12 0 -18 0 -5 0 -8 -4
-4 -9 3 -5 1 -12 -5 -16 -5 -3 -10 3 -10 14 0 32 -17 25 -22 -9z"/>
<path d="M1240 105 c0 -43 27 -49 33 -7 l4 27 2 -28 c1 -38 26 -30 26 9 0 25
-4 29 -32 31 -31 3 -33 1 -33 -32z"/>
<path d="M1318 105 c2 -19 5 -35 7 -35 2 0 5 16 7 35 2 21 0 35 -7 35 -7 0 -9
-14 -7 -35z"/>
<path d="M1349 130 c-3 -8 -3 -24 -1 -37 3 -17 10 -22 28 -21 20 2 24 8 24 35
0 42 -15 43 -25 1 l-8 -33 -6 35 c-4 20 -9 29 -12 20z"/>
<path d="M1410 103 c0 -43 5 -41 13 5 4 18 2 32 -3 32 -6 0 -10 -16 -10 -37z"/>
<path d="M1440 103 c0 -35 1 -36 15 -17 12 15 14 16 15 3 0 -11 10 -16 35 -16
33 0 35 2 35 32 0 22 -5 32 -16 32 -10 0 -14 -7 -11 -18 3 -9 1 -23 -4 -30 -6
-10 -9 -4 -9 19 0 34 -15 44 -23 15 -4 -17 -5 -17 -6 0 0 9 -8 17 -16 17 -11
0 -15 -11 -15 -37z"/>
</g>
</svg>
